/* XPM */
static char *result[] = {
/* columns rows colors chars-per-pixel */
"100 100 12 1 ",
"  c #252525",
". c gray15",
"X c #2A2929",
"o c #343333",
"O c #3C3B3A",
"+ c #454242",
"@ c #4C4A49",
"# c #565352",
"$ c #615E5D",
"% c #6E6B6B",
"& c #797676",
"* c None",
/* pixels */
"****************************************************************************************************",
"****************************************************************************************************",
"****************************************************************************************************",
"****************************************************************************************************",
"****************************************************************************************************",
"****************************************************************************************************",
"****************************************************************************************************",
"****************************************************************************************************",
"********************************************X...........********************************************",
"********************************************X...........********************************************",
"********************************************X.$&&&&&&%..********************************************",
"********************************************X.%%$$$$$#..********************************************",
"********************************************X.%%######..********************************************",
"********************************************X.%%######..********************************************",
"**************************************      X.%%######..       *************************************",
"************************************* ........%%######.........*************************************",
"************************************* .XOOOOOO%%######+OOOOOo..*************************************",
"************************************* .+&&&&&&&%#####%&&&&&&$..*************************************",
"************************************* .+&###################+..*************************************",
"************************************* .+&###################+..*************************************",
"************************************* .+&###################+..*************************************",
"************************************* .+&###################+..*************************************",
"************************************* .+&###################+..*************************************",
"************************************* .+%###################+..*************************************",
"************************************* .oOOOOOO@#######OOOOOOo..*************************************",
"************************************* ........@#######o........*************************************",
"**************************************      .X########O..      *************************************",
"******************************************* .o########@..*******************************************",
"***************************        ********X.+#########..*********       ***************************",
"*********************** X.............  ***..@#########X. ***  ............. ***********************",
"********************* ....XO+@@@+Oo......X ..##########O.  ......XooOOOOoX....X*********************",
"******************* ...o#%&%%$######@+OX....o##########+.....oO@###########+o... *******************",
"****************** ..o$&&%$#############@OX.O##########@..o+#################@O..X******************",
"***************** ..@&&%###################@@###########O@#####################@X..*****************",
"**************** .X$&&$##########################################################o..****************",
"*************** ..$&&$############################################################X..***************",
"************** ..$&&$#############################################################@X. **************",
"**************X.@&&$###############################################################O..**************",
"************* .X&&$################################################################+o.X*************",
"*************..#&%#################################################################@+..*************",
"*************.X&&$##################################################################+o. ************",
"************ .+&%###################################################################+O..************",
"************..$&$###############+OOOO@########################@+OOO+@###############++..************",
"************..%&##############O.......XO####################+o.......o@#############@+o. ***********",
"************.o&%#############X...    ....O################@X...X    ...@############@+o. ***********",
"*********** .O&%############O.. ****** X..o##############+... ******* .X############@+O.X***********",
"*********** .+&$############.. ********* ..O############@.. **********..+###########@+O..***********",
"*********** .+&$###########@..*********** .O############@..*********** .o###########@+O..***********",
"*********** .+&$###########+.X*********** .O############@..*********** .o###########@+O..***********",
"*********** .O&$###########+..*********** .O############@..*********** .o###########++O..***********",
"************.o&$############..*********** .O############@..***********..+###########++o. ***********",
"************..%$############O.X********** .O############@..********** .X###########@++X. ***********",
"************..#$#############X. ********* .O############@..********* ..+###########+++..************",
"************ .O%#############@.. ******** .O############@..*********..O###########@++O..************",
"*************..$##############+.. ******* .O############@..********..o############+++X. ************",
"************* .+$##############O.. ****** .O############@..*******..o############@++O..*************",
"**************..################O.. ***** .O############@..******..X############@+++X. *************",
"************** .X################O.. **** .O############@..*****X.X@###########@+++o..**************",
"***************X.o################o..**** .O############@..****X.X@###########@+++O.. **************",
"****************..O################o..*** .O############@..*** ..@###########@+++O.. ***************",
"**************** ..+################X......O############@.......@###########@++++.. ****************",
"***************** ..+################X....XO############@XX....+###########@++++X.X*****************",
"****************** ..+########################################@###########@++++X..******************",
"******************* ..+##################################################@++++X..*******************",
"******************** ..+################################################@++++X..********************",
"********************* ..+##############################################@++++X..*********************",
"********************** ..+############################################@++++X..**********************",
"*********************** ..@##########################################@++++X..***********************",
"************************ ..@########################################@++++o..************************",
"*************************X.X#######################################@++++o.. ************************",
"**************************..o#####################################@++++O.. *************************",
"***************************..+##########@@@@+++++++++++++@@@@####@+++++.. **************************",
"*************************** ..@+OOooX..........................XXXooOOo.X***************************",
"****************************.....................XXX.................... ***************************",
"************************** .....oO+@#$$$%%%&&&&&&&&&&&&&&&%%%$$#@+Oo.....X *************************",
"************************ ...o@#&&&&&&&&&&&&&&&&&&&&&&&&&&&&&&&&&&&&&&$#O... ************************",
"*********************** ..o$&&&&&&&&&&&&&&&&&&&&&&&&&&&&&&&&&&&&&&&&&&&&%@..X***********************",
"***********************..@&&&&&&&%%%%%$$$$$$$$$$$$$$$$$$$$$$$%$%%%%&&&&&&&$X. **********************",
"**********************X.O&&%$$$#######################################$$%%&$..**********************",
"**********************..$##################################################$O. *********************",
"********************* .o####################################################+..*********************",
"********************* .O#####################################################..*********************",
"*********************..+#####################################################..*********************",
"*********************..@#####################################################X.*********************",
"*********************..@#####################################################o.*********************",
"*********************..@#####################################################o. ********************",
"*********************..@#####################################################o. ********************",
"*********************..@#####################################################o. ********************",
"*********************..ooooooooooooooooooooooooooooooooooooooooooooooooooooooX. ********************",
"*********************.......................................................... ********************",
"*********************                                                          *********************",
"****************************************************************************************************",
"****************************************************************************************************",
"****************************************************************************************************",
"****************************************************************************************************",
"****************************************************************************************************",
"****************************************************************************************************",
"****************************************************************************************************",
"****************************************************************************************************",
"****************************************************************************************************"
};
