/* XPM */
static char *result[] = {
/* columns rows colors chars-per-pixel */
"100 100 12 1 ",
"  c #252525",
". c gray15",
"X c #2B2A2A",
"o c #373535",
"O c #444241",
"+ c #4B4948",
"@ c #524F4E",
"# c #565352",
"$ c #5F5D5C",
"% c #6A6867",
"& c #777474",
"* c None",
/* pixels */
"****************************************************************************************************",
"****************************************************************************************************",
"****************************************************************************************************",
"****************************************************************************************************",
"****************************************************************************************************",
"****************************************************************************************************",
"****************************************************************************************************",
"****************************************************************************************************",
"****************************************************************************************************",
"****************************************************************************************************",
"***************************************  ***********************************************************",
"************************************* ... **********************************************************",
"************************************ ..XX. *********************************************************",
"************************************..O&$X. ********************************************************",
"************************************..&&%+X. *******************************************************",
"*********************************** .o&&&#+X. ******************************************************",
"*********************************** .@&&&##+X. *****************************************************",
"***********************************..$&&&###+X. ****************************************************",
"***********************************..&&&&####+X....  ***********************************************",
"********************************** .O&&&&#####+X.......  *******************************************",
"********************************* .X%&&&%#######@+OooX.... *****************************************",
"******************************** ..$&&&&############@+OoX... ***************************************",
"******************************* ..#&&&&################@OoX... *************************************",
"****************************** ..$&&&%###################@OOo... ***********************************",
"***************************** .X%&&&$######################+OoX.. **********************************",
"**************************** ..$&&&$########################@OOo..X*********************************",
"****************************X.+&&&$##########################@+OoX..********************************",
"****************************.X&&&%#####@+@#####################+OOX..*******************************",
"*************************** .O&&&#####o...O#####################+OOX..******************************",
"***************************..$&&$####o.....+####################@OOOX..*****************************",
"************************** .X&&&####+......O#####################@OOOX. ****************************",
"************************** .+&&%####o......O######################+OOO.. ***************************",
"**************************..%&&$####.....XO########################OOOo..***************************",
"************************* .o&&&####+o+@++##########################@OOOo.X**************************",
"*************************X.@&&%#####################################OOOO.. *************************",
"************************ ..&&&$#####################################+OOOo..*************************",
"************************X.+&&&#######################@##############@OOOOX. ************************",
"*********************** .X&&&$######################++###############OOOOo..************************",
"***********************..#&&%######################@OO###############+OOOO.. ***********************",
"**********************X.o&&&#######################+OO###############+OOOOo. ***********************",
"********************* .X%&&$######################@OOO###############@OOOOO..***********************",
"******************** ..$&&$#######################OOOO###############@OOOOOX. **********************",
"********************..O&&%#######################+OOO+###############@OOOOOo. **********************",
"******************* .X&&%#######################OXOOO+################OOOOOo..**********************",
"****************** ..%&&#######################+..oOO@################OOOOOO..**********************",
"******************..@&&$######################+...XOO################@OOOOOOX. *********************",
"***************** .o&&$######################+..X..O+################@OOOOOOo. *********************",
"**************** .X%&%######################+.. * .o+################@OOOOOOo. *********************",
"****************..$&%###########@@#########O.. ** .o@################@OOOOOOo. *********************",
"*************** .o&&###########@OOO+#####@o.. *** .o#################+OOOOOOo..*********************",
"***************X.$&$###########OOOOOO@#@OX.. ****..O#################+OOOOOOO..*********************",
"***************..$$###########@OOOOoooX...X***** ..@#################OOOOOOOO..*********************",
"***************..+############+OOX....... ******..o#################@OOOOOOOO..*********************",
"*************** .o############Oo...    ******** .X@#################+OOOOOOOO..*********************",
"****************..O##########@O.. ************ ..+##################OOOOOOOOO..*********************",
"**************** ..o@########OX.X************ ..O##################+OOOOOOOOO..*********************",
"***************** ...o+#####+o..************X..O###################OOOOOOOOOO..*********************",
"****************** X...XoO@@O.. ***********..X+###################+OOOOOOOOOo..*********************",
"********************* ........ ********** ..X@###################@OOOOOOOOOOo. *********************",
"***********************  .... ********** ..o@####################+OOOOOOOOOOo. *********************",
"*************************************** ..o#####################@OOOOOOOOOOOX. *********************",
"************************************** ..O#####################@OOOOOOOOOOOO..**********************",
"************************************* ..O######################+OOOOOOOOOOOO..**********************",
"************************************ ..O######################+OOOOOOOOOOOOo. **********************",
"*********************************** ..O######################@OOOOOOOOOOOOOX. **********************",
"***********************************..o#######################OOOOOOOOOOOOOO..***********************",
"********************************** .X#######################+OOOOOOOOOOOOOo..***********************",
"********************************* ..@######################@OOOOOOOOOOOOOOo. ***********************",
"*********************************..O#######################+OOOOOOOOOOOOOOX. ***********************",
"******************************** .X@######################@OOOOOOOOOOOOOOO..************************",
"********************************..O#######################+OOOOOOOOOOOOOOo..************************",
"********************************..@#######@++++OOOOOOOOOOOoooOOOOOOOOOOOOo. ************************",
"******************************* .oOOooXX..........................XXXoooOX.*************************",
"******************************* ................XXXXXXXXXX.................*************************",
"***************************** .....ooO+#$$%%&&&&&&&&&&&&&&&&&&%%$$#@+Oo..... ***********************",
"*************************** ...o@$&&&&&&&&&&&&&&&&&&&&&&&&&&&&&&&&&&&&&&$+o... *********************",
"************************** ..O%&&&&&&&&&&&&&&&&&&&&&&&&&&&&&&&&&&&&&&&&&&&&%O.. ********************",
"************************* ..$&&&&&&&&&%%%%%%$$$$$$$$$$$$$$$$$$$%%%%%%&&&&&&&&#.. *******************",
"*************************..@&&%%$$######################################$$$%&&+..*******************",
"************************ .X$##################################################$X. ******************",
"************************ .O####################################################o. ******************",
"************************..+####################################################O..******************",
"************************..@####################################################+..******************",
"************************..#####################################################@..******************",
"************************.X######################################################..******************",
"************************.X######################################################..******************",
"************************.X######################################################..******************",
"************************.X######################################################..******************",
"************************..oooooooooooooooooooooooooooooooooooooooooooooooooooooo..******************",
"************************..........................................................******************",
"************************                                                          ******************",
"****************************************************************************************************",
"****************************************************************************************************",
"****************************************************************************************************",
"****************************************************************************************************",
"****************************************************************************************************",
"****************************************************************************************************",
"****************************************************************************************************",
"****************************************************************************************************",
"****************************************************************************************************"
};
