/* XPM */
static char *result[] = {
/* columns rows colors chars-per-pixel */
"100 100 12 1 ",
"  c #202020",
". c #252525",
"X c gray15",
"o c gray17",
"O c #373535",
"+ c #444141",
"@ c #4A4847",
"# c #504E4D",
"$ c #565352",
"% c #646161",
"& c #767473",
"* c None",
/* pixels */
"****************************************************************************************************",
"****************************************************************************************************",
"****************************************************************************************************",
"****************************************************************************************************",
"****************************************************************************************************",
"****************************************************************************************************",
"****************************************************************************************************",
"****************************************************************************************************",
"****************************************************************************************************",
"****************************************************************************************************",
"****************************************************************************************************",
"***********************************.XXXXXo.***************.XXXXXo.**********************************",
"*********************************.XXXXXXXXXX************.XXXXXXXXXo*********************************",
"********************************.XXO%&%$#+XXX.*********.XXO%&%$#+XXX********************************",
"*******************************.XX$&&$$$$$@o X********.XX$&%$$$$$@X X*******************************",
"*******************************XX#&&$$$$$$$+XXo*******XX$&%$$$$$$$+XX.******************************",
"******************************.XO&&$$$$$$$$++ X******.X+&&$$$$$$$$++ X******************************",
"******************************XX%&%$$$$$$$$++oX.*****XX%&$$$$$$$$$++XX.*****************************",
"******************************XX&&$$$$$$$$#++O X*****Xo&%$$$$$$$$#++O .*****************************",
"******************************Xo&%$$$$$$$$+++O X*****XO&$$$$$$$$$+++O X*****************************",
"******************************XX&$$$$$$$$@++++ X*****XO&$$$$$$$$@+++O o*****************************",
"******************************XX%$$$$$$$#++++OXo*****XX%$$$$$$$@++++o .*****************************",
"******************************oX#$$$$$$$@++++XX.*****XX#$$$$$$#+++++X .*****************************",
"******************************.Xo#$$$$$$@+++O X******.Xo$$$$$$@++++O X******************************",
"*******************************XXO$$$$$$@++O X.*******XXO$$$$$++++O X.******************************",
"********************************XXo@$$$$@+O  .*********XXo$$$#+++O  .*******************************",
"********************************.XXXo$$$#++ X**********.XO$$$#+O  X.********************************",
"****************.XXXXX.***********.XX$$$$@+o .*********XX@$$$#+O X.**********.oXXXXo.***************",
"**************.XXXXXXXXX.**********XX$$$$#+O X*********XX$$$$$+O o**********oXXXXXXXXo**************",
"*************.XXO%&%$@OXX.*********Xo$$$$$++ X********.XO$$$$$+O X*********XXo$&%$#+oXX*************",
"************.XX#&&$$$$$OXX.********Xo$$$$$#+oX.*******XX@$$$$$+O X********XXO&&%$$$$#oXX************",
"************XX#&&$$$$$$@OXX********Xo$$$$$$+O X******.Xo$$$$$$@O X*******.XO&&$$$$$$$@oX.***********",
"***********.XO&&$$$$$$$@+OX.******.XO$$$$$$@+ X******.XO$$$$$$@+ X*******XX%&%$$$$$$$#OXX***********",
"***********oX$&%$$$$$$$+++XX******.XO$$$$$$$+oX.*****XX@$$$$$$@+ X******.XO&%$$$$$$$$#+XX.**********",
"***********XX%&$$$$$$$#+++XX******.XO$$$$$$$@O X****.Xo$$$$$$$#+ X******.X#&$$$$$$$$$#+oX.**********",
"***********XX&%$$$$$$$#+++oX******.XO$$$$$$$#+ X****.XO$$$$$$$#+ X******.X$&$$$$$$$$$@+oX.**********",
"***********XX%$$$$$$$$@+++XX******.XO$$$$$$$$@oX.***XX@$$$$$$$#+ X******.X#%$$$$$$$$$++oX.**********",
"***********.X#$$$$$$$$@++OXX******.XO$$$$$$$$#O X**.Xo$$$$$$$$$+ X******.Xo$$$$$$$$$@++ X.**********",
"***********.Xo$$$$$$$$@++oX.******.X+$$$$$$$$$@XX.*oX+$$$$$$$$$+XX*******XX+$$$$$$#+++O X***********",
"************XXO$$$$$$$$++XX.******.X+$$$$$$$$$#oX.*XX#$$$$$$$$$@XX*******XXo$$$$#@++++ X.***********",
"************.XX+$$$$$$$$@OXX.*****.X+$$$$$$$$$$+XX.Xo$$$$$$$$$$@XX******oXo#$$$#+++++X X************",
"*************.XXo@#$$$$$#@OXX.****oX+$$$$$$$$$$@XXXX+$$$$$$$$$$@oX.****.Xo#$$$$++++O  X*************",
"**************.XXXX+$$$$$$@OXX.***XX@$$$$$$$$$$$OXXX#$$$$$$$$$$#oX.***.XX@$$$$@++X  Xo**************",
"****************.XXo$$$$$$$@OXX.**XX@$$$$$$$$$$$+XXO$$$$$$$$$$$#oX.**.XX@$$$$$+++ Xo.***************",
"******************XX@$$$$$$$@oXX**XX@$$$$$$$$$$$$oX+$$$$$$$$$$$#oX.*.XX@$$$$$@++o .*****************",
"******************.XO$$$$$$$$@oXX.XX#$$$$$$$$$$$$OX#$$$$$$$$$$$$OX..XX+$$$$$#+++ X******************",
"*******************XX#$$$$$$$$@oXXXX#$$$$$$$$$$$$@O$$$$$$$$$$$$$OXXXX+$$$$$$@++O X******************",
"*******************oX+$$$$$$$$$@oXXX$$$$$$$$$$$$$$#$$$$$$$$$$$$$OXXX+$$$$$$#+++X .******************",
"*******************.Xo$$$$$$$$$$@oXX$$$$$$$$$$$$$$$$$$$$$$$$$$$$OXX+$$$$$$$+++O X*******************",
"********************XX@$$$$$$$$$$@oX$$$$$$$$$$$$$$$$$$$$$$$$$$$$+XO$$$$$$$@+++o .*******************",
"********************.XO$$$$$$$$$$$@o$$$$$$$$$$$$$$$$$$$$$$$$$$$$+O$$$$$$$#++++ X********************",
"*********************XX#$$$$$$$$$$$#$$$$$$$$$$$$$$$$$$$$$$$$$$$$#$$$$$$$$@+++o o********************",
"*********************oXO$$$$$$$$$$$$$$$$$$$$$$$$$$$$$$$$$$$$$$$$$$$$$$$$#++++ X.********************",
"*********************.Xo$$$$$$$$$$$$$$$$$$$$$$$$$$$$$$$$$$$$$$$$$$$$$$$#++++O X*********************",
"**********************XX+$$$$$$$$$$$$$$$$$$$$$$$$$$$$$$$$$$$$$$$$$$$$$$@++++X .*********************",
"**********************.Xo$$$$$$$$$$$$$$$$$$$$$$$$$$$$$$$$$$$$$$$$$$$$$#+++++ X**********************",
"***********************XX@$$$$$$$$$$$$$$$$$$$$$$$$$$$$$$$$$$$$$$$$$$$#+++++o .**********************",
"***********************.XO$$$$$$$$$$$$$$$$$$$$$$$$$$$$$$$$$$$$$$$$$$$++++++ X***********************",
"************************XX#$$$$$$$$$$$$$$$$$$$$$$$$$$$$$$$$$$$$$$$$$@+++++O X***********************",
"************************XX+$$$$$$$$$$$$$$$$$$$$$$$$$$$$$$$$$$$$$$$$@++++++XX.***********************",
"************************.Xo$$$$$$$$$$$$$$$$$$$$$$$$$$$$$$$$$$$$$$$#++++++O X************************",
"*************************XX@$$$$$$$$$$$$$$$$$$$$$$$$$$$$$$$$$$$$$#+++++++o .************************",
"*************************.XO$$$$$$$$$$$$$$$$$$$$$$$$$$$$$$$$$$$$#++++++++ X*************************",
"**************************XX#$$$$$$$$$$$$$$$$$$$$$$$$$$$$$$$$$$$@+++++++o o*************************",
"**************************oX+$$$$$$$$$$$$$$$$$$$$$$$$$$$$$$$$$$+++++++++XX.*************************",
"**************************.Xo$$$$$$$$$$$$$$$$$$$$$$$$$$$$$$$$#+++++++++O X**************************",
"***************************XX+$$$$$$$$$$$$$$$$$$$$$$$$$$$$$$#++++++++++X .**************************",
"***************************.Xo$$$$$$$$$$$$$$$$$$$$$$$$$$$$$@+++++++++++ X***************************",
"****************************XX@$$$$$$$$$$$$$$$$$$$$$$$$$$#@++++++@++++o .***************************",
"****************************.XO$$$$$$$$$$$$$$$$$$$$$$$$#@+++++++++++++ X****************************",
"*****************************XX#$$$$$$$$$$$$$$$$$$$$$#@++++++++++++++O X****************************",
"*****************************XX+$$$$$$$$#@@@@@++++++OOOOOO+++++++++++XX.****************************",
"*****************************.Xo++OOooXXXXXXXXXXXXXXXXXXXXXXXXXXoooOO X*****************************",
"****************************..XXXXXXXXXXXXXXXXXXXoooXXXXXXXXXXXXXXXXXXX.****************************",
"**************************.XXXXXXO+@#$%%%&&&&&&&&&&&&&&&&&&&%%%$$@+OXXXXXX.*************************",
"************************.XXXO#$%&&&&&&&&&&&&&&&&&&&&&&&&&&&&&&&&&&&&&%#+oXX.************************",
"***********************.XXO%&&&&&&&&&&&&&&&&&&&&&&&&&&&&&&&&&&&&&&&&&&&&&#XXo***********************",
"***********************XX+&&&&&&&&&&&%%%%%%%%%%%%%%%%%%%%%%%%%%%%&&&&&&&&&%oX.**********************",
"**********************.XO&&&%%%$$$$#$$$$$$$$$$$#$$#$$#$$$$$$$$$$$$$$$$%%%&&%XX**********************",
"**********************XX$%$$$$$$$$$$$$$$$$$$$$$$$$$$$$$$$$$$$$$$$$$$$$$$$$$$+X.*********************",
"*********************.Xo$$$$$$$$$$$$$$$$$$$$$$$$$$$$$$$$$$$$$$$$$$$$$$$$$$$$@XX*********************",
"*********************.XO$$$$$$$$$$$$$$$$$$$$$$$$$$$$$$$$$$$$$$$$$$$$$$$$$$$$$XX*********************",
"*********************.X+$$$$$$$$$$$$$$$$$$$$$$$$$$$$$$$$$$$$$$$$$$$$$$$$$$$$$oX*********************",
"*********************oX+$$$$$$$$$$$$$$$$$$$$$$$$$$$$$$$$$$$$$$$$$$$$$$$$$$$$$OX.********************",
"*********************XX@$$$$$$$$$$$$$$$$$$$$$$$$$$$$$$$$$$$$$$$$$$$$$$$$$$$$$OX.********************",
"*********************XX@$$$$$$$$$$$$$$$$$$$$$$$$$$$$$$$$$$$$$$$$$$$$$$$$$$$$$OX.********************",
"*********************XX@$$$$$$$$$$$$$$$$$$$$$$$$$$$$$$$$$$$$$$$$$$$$$$$$$$$$$OX.********************",
"*********************XX@$$$$$$$$$$$$$$$$$$$$$$$$$$$$$$$$$$$$$$$$$$$$$$$$$$$$$OX.********************",
"*********************XXoOOOOOOOOOOOOOOOOOOOOOOOOOOOOOOOOOOOOOOOOOOOOOOOOOOOOOoX.********************",
"*********************XXXXXXXXXXXXXXXXXXXXXXXXXXXXXXXXXXXXXXXXXXXXXXXXXXXXXXXXXX.********************",
"*********************..........................................................*********************",
"****************************************************************************************************",
"****************************************************************************************************",
"****************************************************************************************************",
"****************************************************************************************************",
"****************************************************************************************************",
"****************************************************************************************************",
"****************************************************************************************************",
"****************************************************************************************************",
"****************************************************************************************************"
};
