/* XPM */
static char *result[] = {
/* columns rows colors chars-per-pixel */
"100 100 20 1 ",
"  c #444444",
". c gray27",
"X c #464646",
"o c #4B4B4B",
"O c #515151",
"+ c #5B5B5B",
"@ c #6A6A6A",
"# c gray49",
"$ c #8B8B8B",
"% c #A0A0A0",
"& c #B1B1B1",
"* c gray76",
"= c LightGray",
"- c #DDDDDD",
"; c gray91",
": c #F1F1F1",
"> c #F9F9F9",
", c gray99",
"< c white",
"1 c None",
/* pixels */
"1111111111111111111111111111111111111111111111111111111111111111111111111111111111111111111111111111",
"1111111111111111111111111111111111111111111111111111111111111111111111111111111111111111111111111111",
"1111111111111111111111111111111111111111111111111111111111111111111111111111111111111111111111111111",
"1111111111111111111111111111111111111111111111111111111111111111111111111111111111111111111111111111",
"1111111111111111111111111111111111111111111111111111111111111111111111111111111111111111111111111111",
"1111111111111111111111111111111111111111111111111111111111111111111111111111111111111111111111111111",
"1111111111111111111111111111111111111111111111111111111111111111111111111111111111111111111111111111",
"1111111111111111111111111111111111111111111111111111111111111111111111111111111111111111111111111111",
"1111111111111111111111111111111111111111111111111111111111111111111111111111111111111111111111111111",
"111111111111111111111111111111111111111111111.XXXXX. 11111111111111111111111111111111111111111111111",
"1111111111111111111111111111111111111111111 XXXo+OXXX.1111111111111111111111111111111111111111111111",
"111111111111111111111111111111111111111111.XX@*:>>-$oX.111111111111111111111111111111111111111111111",
"111111111111111111111111111111111111111111XX#>,>>>>>*OX.11111111111111111111111111111111111111111111",
"11111111111111111111111111111111111111111.X@>,>>>>>>-&XX11111111111111111111111111111111111111111111",
"11111111111111111111111111111111111111111XX=,>>>>>>>-=@X.1111111111111111111111111111111111111111111",
"11111111111111111111111111111111111111111XO,>>>>>>>>-=%X.1111111111111111111111111111111111111111111",
"1111111111111111111111111111111111111111 X@,>>>>>>>>==%XX1111111111111111111111111111111111111111111",
"1111111111111111111111111111111111111111 X@>>>>>>>>;=*oX.1111111111111111111111111111111111111111111",
"11111111111111111111111111111111111111111Xo:>>>>>>>-=+X.11111111111111111111111111111111111111111111",
"11111111111111111111111111111111111111111XX&>>>>>>:=#XX111111111111111111111111111111111111111111111",
"11111111111111111111111111111111111111111.X+;>>>>>;&XX 111111111111111111111111111111111111111111111",
"111111111111111111111111111111111111111111XX@;>>>:=@X.1111111111111111111111111111111111111111111111",
"11111111111111111111111111111111111111111.XX%<,>>-%XX11111111111111111111111111111111111111111111111",
"1111111111111111111111111111111111111111.Xo*<,>>:=+X.11111111111111111111111111111111111111111111111",
"111111111111111111111111111111111111111XXO-<,>>>-%XX111111.11111111111111111111111111111111111111111",
"11111111111111111111111111111111111111XX+;<>>>>:=@X.111111XX1111111111111111111111111111111111111111",
"1111111111111111111111111111111111111.X+;<>>>>>-*XX111111.XXX111111111111111111111111111111111111111",
"111111111111111111111111111111111111.X+;<,>>>>:=$X.111111XX+XX11111111111111111111111111111111111111",
"11111111111111111111111111111111111.XO;<,>>>>>==OX 11111.X#;+XX1111111111111111111111111111111111111",
"1111111111111111111111111111111111.Xo=<,>>>>>;=&XX111111XX=>;+X.111111111111111111111111111111111111",
"111111111111111111111111111111111.XX*<<>>>>>>==#X.11111.X@>>>-OX.11111111111111111111111111111111111",
"111111111111111111111111111111111XX%<<>>>>>>;==+X.11111XX&>>>>=oX.1111111111111111111111111111111111",
"11111111111111111111111111111111.X#<<,>>>>>>==*XX111111XX;>>>>>&XX 111111111111111111111111111111111",
"1111111111111111111111111111111.XO:<<>>>>>>;==%X.11111.X@>>>>>>>#XX111111111111111111111111111111111",
"111111111111111111111111111111 XX*<<,>>>>>>-==#X.11111.X&>>>>>>>:+X.11111111111111111111111111111111",
"111111111111111111111111111111.X$<<<>>>>>>:===+X 11111XX=>>>>>>>>*XX.1111111111111111111111111111111",
"11111111111111111111111111111.XO:<<>>>>>>>;==*XX111111XO>>>>>>>>>:$XX1111111111111111111111111111111",
"11111111111111111111111111111XX&<<<>>>>>>>===&XX11111.X#>>>>>>>>>>=+X.111111111111111111111111111111",
"1111111111111111111111111111.X+><<>>>>>>>:===$X.11111.X%>>>>>>>>>>-%XX111111111111111111111111111111",
"1111111111111111111111111111XX&<<<>>>>>>>:===#X.11111XX&>>>>>>>>>>;=+X.11111111111111111111111111111",
"111111111111111111111111111.XO><<,>>>>>>>;===@X.11111XX=>>>>>>>>>>:=%XX11111111111111111111111111111",
"111111111111111111111111111.X%<<<>>>>>>>>;===OX111111XX:>>>>>>>>>>>==OX.1111111111111111111111111111",
"111111111111111111111111111XX;<<,>>>>>>>>;===XX111111X+>>>>>>>>>>>>-=$X.1111111111111111111111111111",
"11111111111111111111111111.X@<<<>>>>>>>>>;==*XX11111 X@>>>>>>>>>>>>-=&XX1111111111111111111111111111",
"11111111111111111111111111.X%<<<>>>>>>>>>;==&XX11111.X#>>>>>>>>>>>>-==+X 111111111111111111111111111",
"11111111111111111111111111XX-<<,>>>>>>>>>;==%XX11111.X$>>>>>>>>>>>>;==#X.111111111111111111111111111",
"11111111111111111111111111Xo,<<>>>>>>>>>>:==%X.11111.X%>>>>>>>>>>>>;==%X.111111111111111111111111111",
"1111111111111111111111111 X@<<<>>>>>>>>>>:==$X.11111.X%>>>>>>>>>>>>;==&XX111111111111111111111111111",
"1111111111111111111111111.X$<<,>>>>>>>>>>>==$X.11111.X&>>>>>>:>>>>>;==*XX111111111111111111111111111",
"1111111111111111111111111.X%<<,>>>>>>>>>>>-=$X.11111.X&>>>>>>>>>>>>-===oX111111111111111111111111111",
"1111111111111111111111111.X&<<>>>>>>>>>>>>;=$X.11111.X&>>>>>>>>>>>>-===OX111111111111111111111111111",
"1111111111111111111111111.X&<<>>>>>>>>>>>>>-$XXXXXXXXX&>>>>>>>>>>>>-===+X111111111111111111111111111",
"1111111111111111111111111.X&<,>>>>>>>>>>>>>:$OOOOOOOOO*>>>>>>>>>>>>====OX111111111111111111111111111",
"1111111111111111111111111.X%<,>>>>:>>>:>>>>>>>>>>>>>>>>>>>>>>>:>>>:====oX111111111111111111111111111",
"1111111111111111111111111.X%<,>>>>>>>>>>>>>>>>>>>>>>>>>>>>:>>>>>>>;====XX111111111111111111111111111",
"1111111111111111111111111.X#<>>>>>>>>>>>>>>>>>>>>>>>>>>>>>>>>>>>>>-===*XX111111111111111111111111111",
"1111111111111111111111111 X@<>>>>>>>:>>>:>>>>>>>>>>>>>>>>>>>>>>>::====&XX111111111111111111111111111",
"11111111111111111111111111Xo,>>>>:>>>>>>>>>>>>:>>>>:>>>>:>>>:>>>>-====%X.111111111111111111111111111",
"11111111111111111111111111XX->>>>>>>>>>>>>>:>>>>>>>>>>>>>>>>>>>>:=====#X.111111111111111111111111111",
"11111111111111111111111111.X&>>>>>>>>>>>>>>>>>>>>>>>>>>>>>>>>>>>-=====+X 111111111111111111111111111",
"11111111111111111111111111.X#>>>>>>:>>>:>>>>>>>>:>>>>:>>>>>>>>>:=====*XX1111111111111111111111111111",
"111111111111111111111111111XO:>>>>>>>>>>>>>>>>>>>>>>>>>>:>>>:>>-=====%X.1111111111111111111111111111",
"111111111111111111111111111XX*>>>>>>>>>>>>:>>>:>>>>>>>>>>>>>>>-======@X.1111111111111111111111111111",
"111111111111111111111111111.X#>>>>>>>>>>>>>>>>>>>>>:>>>>>>>>>;======*XX11111111111111111111111111111",
"1111111111111111111111111111XX->>>>:>>>:>>>>>>>>>>>>>>>>>>>>;=======#X.11111111111111111111111111111",
"1111111111111111111111111111.X#>>>>>>>>>>>>>>>>>>>>>>>>:>>>;=======*XX111111111111111111111111111111",
"11111111111111111111111111111XX=>>>>>>>>>>>:>>>:>>>>>>>>>>;========#X.111111111111111111111111111111",
"11111111111111111111111111111.X@:>>>>>>>>>>>>>>>>>>>>>>>:;========&XX1111111111111111111111111111111",
"111111111111111111111111111111XX%>>>>>>>>>>>>>>>>>>>>>>:-========*OX.1111111111111111111111111111111",
"111111111111111111111111111111.XX*>>>>>>>>>>>>>>>>>>>:;==========@X.11111111111111111111111111111111",
"1111111111111111111111111111111.Xo=>>>>>>>>>>>>>>>>>;-==========#XX111111111111111111111111111111111",
"11111111111111111111111111111111.XO=>:;-===****&&&&%%%%&&&**===#XX.111111111111111111111111111111111",
"1111111111111111111111111111111 .XXXoXXXXXXXXXXXXXXXXXXXXXXXXooXX. 111111111111111111111111111111111",
"111111111111111111111111111..XXXXXXXXXXXXXXXXOOOO+OOOoXXXXXXXXXXXXXXXX. 1111111111111111111111111111",
"1111111111111111111111111.XXXXX+#$%#$%*-;><<<<<<<<<<<<<<,:;=&%$%$#@OXXXXX.11111111111111111111111111",
"11111111111111111111111.XXX@%=><<<<<<<<<<<<<<<<<<<<<<<<<<<<<<<<<<<<<;*$OXX.1111111111111111111111111",
"1111111111111111111111.XX@=<<<<<<<<<<<<<<<<<<<<<<<<<<<<<<<<<<<<<<<<<<<<:%oX.111111111111111111111111",
"1111111111111111111111XX$,<<<<<<<,,,,,,,,>>>>>>>>>>>>>>>>>,,,,,,,<<<<<<<<-OX.11111111111111111111111",
"111111111111111111111.X@,<,,>>>>>>>>>>>>>>>>>>>>>>>>>>>>>>>>>>>>>>>>>>,,<<=XX 1111111111111111111111",
"111111111111111111111XX->>>>>>>>>>>>>>>>>>>>>>>>>>>>>>>>>>>>>>>>>>>>>>>>>>>$X.1111111111111111111111",
"11111111111111111111.X@>>>>>>>>>>>>>>>>>>>>>>>>>>>>>>>>>>>>>>>>>>>>>>>>>>>>=XX1111111111111111111111",
"11111111111111111111.X$>>>>>>>>>>>:>>>>:>>>:>>>>:>>>>:>>>>:>>>>:>>>>>>>>>>>:XX1111111111111111111111",
"11111111111111111111.X&>>>>>>:>>>>>>>>>>>>>>>>>>>>>>>>>>>>>>>>>>>>:>>>>>>>>>+X 111111111111111111111",
"11111111111111111111XX*>>>>>>>>>>>>>:>>>>>>>>>>>>>:>>>>>>>>>:>>>>>>>>>:>>>>>@X 111111111111111111111",
"11111111111111111111XX=>>>>>>>>>>>>>>>>>>>>>>:>>>>>>>>>:>>>>>>>>>>>>>>>>>>>>#X.111111111111111111111",
"11111111111111111111XX=>>>>>>>>>>>>>>>>>>:>>>>>>>>>>>>>>>>>>>>>>>>>>>>>>>>>>#X.111111111111111111111",
"11111111111111111111XX=>>>>>:>>>:>>>>>>>>>>>>>>>>>>>>>>>>>>>>>>>>>>>>>>>>>>>$X.111111111111111111111",
"11111111111111111111XX=>>>>>>>>>>>>>>>>>>>>>>>>>>>>>>>>>>>>>>>>>>>>>>>>>>>>>$X.111111111111111111111",
"11111111111111111111XX@#####################################################+X.111111111111111111111",
"11111111111111111111XXXXXXXXXXXXXXXXXXXXXXXXXXXXXXXXXXXXXXXXXXXXXXXXXXXXXXXXXX.111111111111111111111",
"11111111111111111111..........................................................1111111111111111111111",
"1111111111111111111111111111111111111111111111111111111111111111111111111111111111111111111111111111",
"1111111111111111111111111111111111111111111111111111111111111111111111111111111111111111111111111111",
"1111111111111111111111111111111111111111111111111111111111111111111111111111111111111111111111111111",
"1111111111111111111111111111111111111111111111111111111111111111111111111111111111111111111111111111",
"1111111111111111111111111111111111111111111111111111111111111111111111111111111111111111111111111111",
"1111111111111111111111111111111111111111111111111111111111111111111111111111111111111111111111111111",
"1111111111111111111111111111111111111111111111111111111111111111111111111111111111111111111111111111",
"1111111111111111111111111111111111111111111111111111111111111111111111111111111111111111111111111111",
"1111111111111111111111111111111111111111111111111111111111111111111111111111111111111111111111111111"
};
