/* XPM */
static char *result[] = {
/* columns rows colors chars-per-pixel */
"100 100 18 1 ",
"  c #444444",
". c gray27",
"X c #464646",
"o c #515151",
"O c #606060",
"+ c gray45",
"@ c #7E7E7E",
"# c #929292",
"$ c #A4A4A4",
"% c #B4B4B4",
"& c #C1C1C1",
"* c #CACACA",
"= c gray83",
"- c gray89",
"; c #F1F1F1",
": c #F9F9F9",
"> c white",
", c None",
/* pixels */
",,,,,,,,,,,,,,,,,,,,,,,,,,,,,,,,,,,,,,,,,,,,,,,,,,,,,,,,,,,,,,,,,,,,,,,,,,,,,,,,,,,,,,,,,,,,,,,,,,,,",
",,,,,,,,,,,,,,,,,,,,,,,,,,,,,,,,,,,,,,,,,,,,,,,,,,,,,,,,,,,,,,,,,,,,,,,,,,,,,,,,,,,,,,,,,,,,,,,,,,,,",
",,,,,,,,,,,,,,,,,,,,,,,,,,,,,,,,,,,,,,,,,,,,,,,,,,,,,,,,,,,,,,,,,,,,,,,,,,,,,,,,,,,,,,,,,,,,,,,,,,,,",
",,,,,,,,,,,,,,,,,,,,,,,,,,,,,,,,,,,,,,,,,,,,,,,,,,,,,,,,,,,,,,,,,,,,,,,,,,,,,,,,,,,,,,,,,,,,,,,,,,,,",
",,,,,,,,,,,,,,,,,,,,,,,,,,,,,,,,,,,,,,,,,,,,,,,,,,,,,,,,,,,,,,,,,,,,,,,,,,,,,,,,,,,,,,,,,,,,,,,,,,,,",
",,,,,,,,,,,,,,,,,,,,,,,,,,,,,,,,,,,,,,,,,,,,,,,,,,,,,,,,,,,,,,,,,,,,,,,,,,,,,,,,,,,,,,,,,,,,,,,,,,,,",
",,,,,,,,,,,,,,,,,,,,,,,,,,,,,,,,,,,,,,,,,,,,,,,,,,,,,,,,,,,,,,,,,,,,,,,,,,,,,,,,,,,,,,,,,,,,,,,,,,,,",
",,,,,,,,,,,,,,,,,,,,,,,,,,,,,,,,,,,,,,,,,,,,,,,,,,,,,,,,,,,,,,,,,,,,,,,,,,,,,,,,,,,,,,,,,,,,,,,,,,,,",
",,,,,,,,,,,,,,,,,,,,,,,,,,,,,,,,,,,,,,,,,,,,.XXXXXXXXXXX,,,,,,,,,,,,,,,,,,,,,,,,,,,,,,,,,,,,,,,,,,,,",
",,,,,,,,,,,,,,,,,,,,,,,,,,,,,,,,,,,,,,,,,,,,.XXXXXXXXXXX,,,,,,,,,,,,,,,,,,,,,,,,,,,,,,,,,,,,,,,,,,,,",
",,,,,,,,,,,,,,,,,,,,,,,,,,,,,,,,,,,,,,,,,,,,.X&;;;;;;;oX,,,,,,,,,,,,,,,,,,,,,,,,,,,,,,,,,,,,,,,,,,,,",
",,,,,,,,,,,,,,,,,,,,,,,,,,,,,,,,,,,,,,,,,,,,.X&:::::::oX,,,,,,,,,,,,,,,,,,,,,,,,,,,,,,,,,,,,,,,,,,,,",
",,,,,,,,,,,,,,,,,,,,,,,,,,,,,,,,,,,,,,,,,,,,.X&:::::::oX,,,,,,,,,,,,,,,,,,,,,,,,,,,,,,,,,,,,,,,,,,,,",
",,,,,,,,,,,,,,,,,,,,,,,,,,,,,,,,,,,,,,,,,,,,.X&:::::::oX,,,,,,,,,,,,,,,,,,,,,,,,,,,,,,,,,,,,,,,,,,,,",
",,,,,,,,,,,,,,,,,,,,,,,,,,,,,,,,,,,,,,......XX&:::::::oX ......,,,,,,,,,,,,,,,,,,,,,,,,,,,,,,,,,,,,,",
",,,,,,,,,,,,,,,,,,,,,,,,,,,,,,,,,,,,, XXXXXXXX&:::::::oXXXXXXXX,,,,,,,,,,,,,,,,,,,,,,,,,,,,,,,,,,,,,",
",,,,,,,,,,,,,,,,,,,,,,,,,,,,,,,,,,,,, Xo++++++=:::::::@+++++OXX,,,,,,,,,,,,,,,,,,,,,,,,,,,,,,,,,,,,,",
",,,,,,,,,,,,,,,,,,,,,,,,,,,,,,,,,,,,, X@>>>>>>>:::::::>>>>>>&XX,,,,,,,,,,,,,,,,,,,,,,,,,,,,,,,,,,,,,",
",,,,,,,,,,,,,,,,,,,,,,,,,,,,,,,,,,,,, X@>:::::::::::::::::::&XX,,,,,,,,,,,,,,,,,,,,,,,,,,,,,,,,,,,,,",
",,,,,,,,,,,,,,,,,,,,,,,,,,,,,,,,,,,,, X@>:::::::::::::::::::&XX,,,,,,,,,,,,,,,,,,,,,,,,,,,,,,,,,,,,,",
",,,,,,,,,,,,,,,,,,,,,,,,,,,,,,,,,,,,, X@>:::::::::::::::::::&XX,,,,,,,,,,,,,,,,,,,,,,,,,,,,,,,,,,,,,",
",,,,,,,,,,,,,,,,,,,,,,,,,,,,,,,,,,,,, X@>:::::::::::::::::::&XX,,,,,,,,,,,,,,,,,,,,,,,,,,,,,,,,,,,,,",
",,,,,,,,,,,,,,,,,,,,,,,,,,,,,,,,,,,,, X@>::::::::;::::::::::&XX,,,,,,,,,,,,,,,,,,,,,,,,,,,,,,,,,,,,,",
",,,,,,,,,,,,,,,,,,,,,,,,,,,,,,,,,,,,, X@::::::::::::::::::::&XX,,,,,,,,,,,,,,,,,,,,,,,,,,,,,,,,,,,,,",
",,,,,,,,,,,,,,,,,,,,,,,,,,,,,,,,,,,,, XO######=:::::::$#####@XX,,,,,,,,,,,,,,,,,,,,,,,,,,,,,,,,,,,,,",
",,,,,,,,,,,,,,,,,,,,,,,,,,,,,,,,,,,,, XXXXXXXX-:::::::+XXXXXXXX,,,,,,,,,,,,,,,,,,,,,,,,,,,,,,,,,,,,,",
",,,,,,,,,,,,,,,,,,,,,,,,,,,,,,,,,,,,,,......XO::::::::$XX......,,,,,,,,,,,,,,,,,,,,,,,,,,,,,,,,,,,,,",
",,,,,,,,,,,,,,,,,,,,,,,,,,,,,,,,,,,,,,,,,,,.X@::::::::*XX,,,,,,,,,,,,,,,,,,,,,,,,,,,,,,,,,,,,,,,,,,,",
",,,,,,,,,,,,,,,,,,,,,,,,,,,. .... .,,,,,,,,.X%::::::::;XX,,,,,,,,,. .... ,,,,,,,,,,,,,,,,,,,,,,,,,,,",
",,,,,,,,,,,,,,,,,,,,,,, .XXXXXXXXXXXXX..,,,XX=:::::::::OX.,,, .XXXXXXXXXXXXX.,,,,,,,,,,,,,,,,,,,,,,,",
",,,,,,,,,,,,,,,,,,,,,.XXXXo+#$$##@OoXXXXX..Xo::::::::::#X..XXXXXXO+###$#@OXXXX.,,,,,,,,,,,,,,,,,,,,,",
",,,,,,,,,,,,,,,,,,, XXXO$->>::::::::-&#OXXXX+::::::::::%XXXXX+$=;:::::::::;&@XXX.,,,,,,,,,,,,,,,,,,,",
",,,,,,,,,,,,,,,,,,.XXO*>>:::::::::::::::-$OX$::::::::::-XX+%;::::::::::::::::-#XXX,,,,,,,,,,,,,,,,,,",
",,,,,,,,,,,,,,,,,.XX$:>>:::::::::::::::::::*=:::::::::::#-:::::::::::::::::::::*OXX,,,,,,,,,,,,,,,,,",
",,,,,,,,,,,,,,,,.Xo*>>::::::::::::::::::::::::::::::::::::::::::::::::::::::::::;+XX,,,,,,,,,,,,,,,,",
",,,,,,,,,,,,,,,.Xo=>>::::::::::::::::::::::::::::;::;::::::::::::::::::::::::::::;+XX,,,,,,,,,,,,,,,",
",,,,,,,,,,,,,,.XX&>>:::::::;::;::;::::::::::::::::::::::::::::;::;::;::;::::::::::=OX.,,,,,,,,,,,,,,",
",,,,,,,,,,,,,,XX#>>:::::::::::::::::;::;::;:::;:::::::::;:::::::::::::::::::;:::::;%XX,,,,,,,,,,,,,,",
",,,,,,,,,,,,, Xo;>:::::;:::::::::::::::::::::::::::::::::::;:::::::::::::::::::::::-@X.,,,,,,,,,,,,,",
",,,,,,,,,,,,,XX%>>:::::::::::::::::::::::::::::::;:::;:::::::::::::::::::;:::::::::-*XX,,,,,,,,,,,,,",
",,,,,,,,,,,,,Xo:>:::::::::;:::::::::::::::::;::::::::::::::::::::::::::::::::;:::::;=@X.,,,,,,,,,,,,",
",,,,,,,,,,,,.X#>>::::;::::::::::::::::::::::::::::::::::::::::::::::::::::::::::::::=%XX,,,,,,,,,,,,",
",,,,,,,,,,,,XX*>:::::::::::::::;%###$*;::::::::::::;::::::::::-%###$=:::::::::::::::==oX,,,,,,,,,,,,",
",,,,,,,,,,,,XX;>:::::::::::::;#oXXXXXXo#-::::::;::::::::::::%OXXXXXXX+=:::::::::::::-=+X ,,,,,,,,,,,",
",,,,,,,,,,,,XO>>::::::::::::;+XXX. ..XXXo$::::::::::::::::=OXXXX. ..XXo*::::::::::::-=#X.,,,,,,,,,,,",
",,,,,,,,,,,.X+>:::::::::::::#XX.,,,,,,..XX+;:::::::::::::%XXX.,,,,,,,.Xo;:::::::::::-=$X.,,,,,,,,,,,",
",,,,,,,,,,, X@>::::::::::::;oX.,,,,,,,,, XX#::::::::::::=XX.,,,,,,,,,,XX%:::::::::::-=%XX,,,,,,,,,,,",
",,,,,,,,,,, X#>::::::::::::*XX,,,,,,,,,,,.X#::::::::::::=XX,,,,,,,,,,, X@:::::::::::-=%XX,,,,,,,,,,,",
",,,,,,,,,,, X#>::::::::::::%X.,,,,,,,,,,,.X#::::::::::::=XX,,,,,,,,,,,.X+:::::::::::-=%XX,,,,,,,,,,,",
",,,,,,,,,,,.X@>::::::::::::&XX,,,,,,,,,,,.X#::::::::::::=XX,,,,,,,,,,, X@:::::::::::==$XX,,,,,,,,,,,",
",,,,,,,,,,,,XO>::::::::::::;XX,,,,,,,,,,,.X#::::::::::::=XX,,,,,,,,,,,XX$::::::::::;==#X.,,,,,,,,,,,",
",,,,,,,,,,,,XX;:::::::::::::#XX,,,,,,,,,,.X#::::::::::::=XX,,,,,,,,,,.Xo;::::::::::-==+X ,,,,,,,,,,,",
",,,,,,,,,,,,XX%::::::;::::::;oX.,,,,,,,,,.X#::::::::::::=XX,,,,,,,,,.XX&:::::::::::==*oX,,,,,,,,,,,,",
",,,,,,,,,,,,.X+>:::::::::::::*XX.,,,,,,,,.X#::::::::::::=XX,,,,,,,,,XX#:::::::::::-==$XX,,,,,,,,,,,,",
",,,,,,,,,,,,,XX=::::::::::::::%XX.,,,,,,,.X#::::::::::::=XX,,,,,,,,XX+;::::::::::;===OX.,,,,,,,,,,,,",
",,,,,,,,,,,,,.X@:::::::::::::::$XX ,,,,,,.X#::::::::::::=XX,,,,,,,XX+;::::::::::;-==$XX,,,,,,,,,,,,,",
",,,,,,,,,,,,,,XX*:::::::::::::::#XX ,,,,,.X#::::::::::::=XX,,,,,,XXO-:::::::::::-==*oX.,,,,,,,,,,,,,",
",,,,,,,,,,,,,,.XO;::::::;::::::::#XX.,,,,.X#::::::::::::=XX,,,,,XXO-:::::::::::-===@XX,,,,,,,,,,,,,,",
",,,,,,,,,,,,,,,XX@::::::::::::::::@XX,,,,.X#::::::::::::=XX,,,,.Xo-:::::::::::-===$XX.,,,,,,,,,,,,,,",
",,,,,,,,,,,,,,,,XX#:::::::::::::::;+XX,,,.X#::::::::::::=XX,,,.Xo=:::::::::::-===%oX.,,,,,,,,,,,,,,,",
",,,,,,,,,,,,,,,, XX%:::::::::::::::;OXXXXXX#::::::::::::=XXXXXXX*:::::::::::-===&oX.,,,,,,,,,,,,,,,,",
",,,,,,,,,,,,,,,,,.XX%::::::;::::::::-oXXXoO$:::::;::::::-OooXXX%:::::::::::-===&OXX,,,,,,,,,,,,,,,,,",
",,,,,,,,,,,,,,,,,,.XX&:::::::::::::::;-;:::::::::::::::::::::;-:::::::::::-===*OXX,,,,,,,,,,,,,,,,,,",
",,,,,,,,,,,,,,,,,,,.XX&:::::::;::::::::::::::::::::::;:::::::::::::::::::-===*OXX,,,,,,,,,,,,,,,,,,,",
",,,,,,,,,,,,,,,,,,,,.XX&::::::::::::::::::::::;::::::::::::::::::::;::;:-===*OXX,,,,,,,,,,,,,,,,,,,,",
",,,,,,,,,,,,,,,,,,,,,.XX&:::::::::;:::::::::::::::;::::::::::::::::::::-===*OXX,,,,,,,,,,,,,,,,,,,,,",
",,,,,,,,,,,,,,,,,,,,,,.XX&::::::::::::::;:::;::::::::::;:::;:::;::::::-===*OXX,,,,,,,,,,,,,,,,,,,,,,",
",,,,,,,,,,,,,,,,,,,,,,,.Xo*::::;:::::;:::::::::::::::::::::::::::::::-===*OXX,,,,,,,,,,,,,,,,,,,,,,,",
",,,,,,,,,,,,,,,,,,,,,,,,.Xo-::::::::::::::::::::::::::::::::::::::::-====+XX,,,,,,,,,,,,,,,,,,,,,,,,",
",,,,,,,,,,,,,,,,,,,,,,,,,.XO;::::::::::::::::::::::::::::::::::::::-====#XX,,,,,,,,,,,,,,,,,,,,,,,,,",
",,,,,,,,,,,,,,,,,,,,,,,,,,XX@:::::::::::::::::::::::::::::::::::::-====$XX ,,,,,,,,,,,,,,,,,,,,,,,,,",
",,,,,,,,,,,,,,,,,,,,,,,,,,,XX%::::::::;--=**&&%%%%%%%%&&&*==-;:::-====*oX.,,,,,,,,,,,,,,,,,,,,,,,,,,",
",,,,,,,,,,,,,,,,,,,,,,,,,,,.Xo=&$#@+OoXXXXXXXXXXXXXXXXXXXXXXXXXoO+@#$&+XX,,,,,,,,,,,,,,,,,,,,,,,,,,,",
",,,,,,,,,,,,,,,,,,,,,,,,,,,,XXXXXXXXXXXXXXXXXooooOOoooooXXXXXXXXXXXXXXXX.,,,,,,,,,,,,,,,,,,,,,,,,,,,",
",,,,,,,,,,,,,,,,,,,,,,,,,,.XXXXXO+#$%&*=-;;>>>>>>>>>>>>>>:;--=&%$#@OXXXXXX.,,,,,,,,,,,,,,,,,,,,,,,,,",
",,,,,,,,,,,,,,,,,,,,,,,, XXXO$%;>>>>>>>>>>>>>>>>>>>>>>>>>>>>>>>>>>>>:*$@XXX.,,,,,,,,,,,,,,,,,,,,,,,,",
",,,,,,,,,,,,,,,,,,,,,,, XX+=>>>>>>>>>>>>>>>>>>>>>>>>>>>>>>>>>>>>>>>>>>>>;#XX.,,,,,,,,,,,,,,,,,,,,,,,",
",,,,,,,,,,,,,,,,,,,,,,,XX#>>>>>>>>>>:>::::::::::::::::::::::::>:>>>>>>>>>>=oX.,,,,,,,,,,,,,,,,,,,,,,",
",,,,,,,,,,,,,,,,,,,,,,.X@>>>:::::::::::::::::::::::::::::::::::::::::::::>>*XX,,,,,,,,,,,,,,,,,,,,,,",
",,,,,,,,,,,,,,,,,,,,,,XX-:::::::::::::::::::::::::::::::::::::::::::::::::::+X.,,,,,,,,,,,,,,,,,,,,,",
",,,,,,,,,,,,,,,,,,,,, X+::::::::::::::::::::::::::::::::::::::::::::::::::::&XX,,,,,,,,,,,,,,,,,,,,,",
",,,,,,,,,,,,,,,,,,,,,.X$:::::::::::;:::;::::;::::;::::;::::::::::::;::::::::-XX,,,,,,,,,,,,,,,,,,,,,",
",,,,,,,,,,,,,,,,,,,,,XX&::::::;::::::::::::::::::::::::::;:::;::;::::::::::::oX,,,,,,,,,,,,,,,,,,,,,",
",,,,,,,,,,,,,,,,,,,,,XX=:::::::::::::::::;:::::::::;:::::::::::::::::::;:::::OX,,,,,,,,,,,,,,,,,,,,,",
",,,,,,,,,,,,,,,,,,,,,XX=::::::::::::::::::::::;::::::::::::::::::::::::::::::+X,,,,,,,,,,,,,,,,,,,,,",
",,,,,,,,,,,,,,,,,,,,,XX-::::::::::::;::::::::::::::::::::::::::::::::::::::::+X.,,,,,,,,,,,,,,,,,,,,",
",,,,,,,,,,,,,,,,,,,,,XX-:::::;:::::::::::::::::::::::::::::::::::::;:::::::::+X.,,,,,,,,,,,,,,,,,,,,",
",,,,,,,,,,,,,,,,,,,,,XX-:::::::::::::::::::::::::::::::::::::::::::::::::::::+X.,,,,,,,,,,,,,,,,,,,,",
",,,,,,,,,,,,,,,,,,,,,XX+@@@@@@@@@@@@@@@@@@@@@@@@@@@@@@@@@@@@@@@@@@@@@@@@@@@@@oX.,,,,,,,,,,,,,,,,,,,,",
",,,,,,,,,,,,,,,,,,,,,XXXXXXXXXXXXXXXXXXXXXXXXXXXXXXXXXXXXXXXXXXXXXXXXXXXXXXXXXX.,,,,,,,,,,,,,,,,,,,,",
",,,,,,,,,,,,,,,,,,,,,..........................................................,,,,,,,,,,,,,,,,,,,,,",
",,,,,,,,,,,,,,,,,,,,,,,,,,,,,,,,,,,,,,,,,,,,,,,,,,,,,,,,,,,,,,,,,,,,,,,,,,,,,,,,,,,,,,,,,,,,,,,,,,,,",
",,,,,,,,,,,,,,,,,,,,,,,,,,,,,,,,,,,,,,,,,,,,,,,,,,,,,,,,,,,,,,,,,,,,,,,,,,,,,,,,,,,,,,,,,,,,,,,,,,,,",
",,,,,,,,,,,,,,,,,,,,,,,,,,,,,,,,,,,,,,,,,,,,,,,,,,,,,,,,,,,,,,,,,,,,,,,,,,,,,,,,,,,,,,,,,,,,,,,,,,,,",
",,,,,,,,,,,,,,,,,,,,,,,,,,,,,,,,,,,,,,,,,,,,,,,,,,,,,,,,,,,,,,,,,,,,,,,,,,,,,,,,,,,,,,,,,,,,,,,,,,,,",
",,,,,,,,,,,,,,,,,,,,,,,,,,,,,,,,,,,,,,,,,,,,,,,,,,,,,,,,,,,,,,,,,,,,,,,,,,,,,,,,,,,,,,,,,,,,,,,,,,,,",
",,,,,,,,,,,,,,,,,,,,,,,,,,,,,,,,,,,,,,,,,,,,,,,,,,,,,,,,,,,,,,,,,,,,,,,,,,,,,,,,,,,,,,,,,,,,,,,,,,,,",
",,,,,,,,,,,,,,,,,,,,,,,,,,,,,,,,,,,,,,,,,,,,,,,,,,,,,,,,,,,,,,,,,,,,,,,,,,,,,,,,,,,,,,,,,,,,,,,,,,,,",
",,,,,,,,,,,,,,,,,,,,,,,,,,,,,,,,,,,,,,,,,,,,,,,,,,,,,,,,,,,,,,,,,,,,,,,,,,,,,,,,,,,,,,,,,,,,,,,,,,,,",
",,,,,,,,,,,,,,,,,,,,,,,,,,,,,,,,,,,,,,,,,,,,,,,,,,,,,,,,,,,,,,,,,,,,,,,,,,,,,,,,,,,,,,,,,,,,,,,,,,,,"
};
