/* XPM */
static char *result[] = {
/* columns rows colors chars-per-pixel */
"100 100 18 1 ",
"  c gray27",
". c #464646",
"X c #515151",
"o c #606060",
"O c #7C7C7C",
"+ c gray56",
"@ c #A2A2A2",
"# c gray70",
"$ c gray75",
"% c #CACACA",
"& c LightGray",
"* c gainsboro",
"= c gray91",
"- c gray95",
"; c #F8F8F8",
": c gray99",
"> c white",
", c None",
/* pixels */
",,,,,,,,,,,,,,,,,,,,,,,,,,,,,,,,,,,,,,,,,,,,,,,,,,,,,,,,,,,,,,,,,,,,,,,,,,,,,,,,,,,,,,,,,,,,,,,,,,,,",
",,,,,,,,,,,,,,,,,,,,,,,,,,,,,,,,,,,,,,,,,,,,,,,,,,,,,,,,,,,,,,,,,,,,,,,,,,,,,,,,,,,,,,,,,,,,,,,,,,,,",
",,,,,,,,,,,,,,,,,,,,,,,,,,,,,,,,,,,,,,,,,,,,,,,,,,,,,,,,,,,,,,,,,,,,,,,,,,,,,,,,,,,,,,,,,,,,,,,,,,,,",
",,,,,,,,,,,,,,,,,,,,,,,,,,,,,,,,,,,,,,,,,,,,,,,,,,,,,,,,,,,,,,,,,,,,,,,,,,,,,,,,,,,,,,,,,,,,,,,,,,,,",
",,,,,,,,,,,,,,,,,,,,,,,,,,,,,,,,,,,,,,,,,,,,,,,,,,,,,,,,,,,,,,,,,,,,,,,,,,,,,,,,,,,,,,,,,,,,,,,,,,,,",
",,,,,,,,,,,,,,,,,,,,,,,,,,,,,,,,,,,,,,,,,,,,,,,,,,,,,,,,,,,,,,,,,,,,,,,,,,,,,,,,,,,,,,,,,,,,,,,,,,,,",
",,,,,,,,,,,,,,,,,,,,,,,,,,,,,,,,,,,,,,,,,,,,,,,,,,,,,,,,,,,,,,,,,,,,,,,,,,,,,,,,,,,,,,,,,,,,,,,,,,,,",
",,,,,,,,,,,,,,,,,,,,,,,,,,,,,,,,,,,,,,,,,,,,,,,,,,,,,,,,,,,,,,,,,,,,,,,,,,,,,,,,,,,,,,,,,,,,,,,,,,,,",
",,,,,,,,,,,,,,,,,,,,,,,,,,,,,,,,,,,,,,,,,,,,,,,,,,,,,,,,,,,,,,,,,,,,,,,,,,,,,,,,,,,,,,,,,,,,,,,,,,,,",
",,,,,,,,,,,,,,,,,,,,,,,,,,,,,,,,,,,,,,,,,,,,,,,,,,,,,,,,,,,,,,,,,,,,,,,,,,,,,,,,,,,,,,,,,,,,,,,,,,,,",
",,,,,,,,,,,,,,,,,,,,,,,,,,,,,,,,,,,,,,,, ,,,,,,,,,,,,,,,,,,,,,,,,,,,,,,,,,,,,,,,,,,,,,,,,,,,,,,,,,,,",
",,,,,,,,,,,,,,,,,,,,,,,,,,,,,,,,,,,,, ... ,,,,,,,,,,,,,,,,,,,,,,,,,,,,,,,,,,,,,,,,,,,,,,,,,,,,,,,,,,",
",,,,,,,,,,,,,,,,,,,,,,,,,,,,,,,,,,,,,..oX. ,,,,,,,,,,,,,,,,,,,,,,,,,,,,,,,,,,,,,,,,,,,,,,,,,,,,,,,,,",
",,,,,,,,,,,,,,,,,,,,,,,,,,,,,,,,,,,,..+:*X. ,,,,,,,,,,,,,,,,,,,,,,,,,,,,,,,,,,,,,,,,,,,,,,,,,,,,,,,,",
",,,,,,,,,,,,,,,,,,,,,,,,,,,,,,,,,,,,.X->:*X. ,,,,,,,,,,,,,,,,,,,,,,,,,,,,,,,,,,,,,,,,,,,,,,,,,,,,,,,",
",,,,,,,,,,,,,,,,,,,,,,,,,,,,,,,,,,, .O>>>;*X. ,,,,,,,,,,,,,,,,,,,,,,,,,,,,,,,,,,,,,,,,,,,,,,,,,,,,,,",
",,,,,,,,,,,,,,,,,,,,,,,,,,,,,,,,,,, .@>>>;;*X. ,,,,,,,,,,,,,,,,,,,,,,,,,,,,,,,,,,,,,,,,,,,,,,,,,,,,,",
",,,,,,,,,,,,,,,,,,,,,,,,,,,,,,,,,,,..%>>>;;;*X. ,,,,,,,,,,,,,,,,,,,,,,,,,,,,,,,,,,,,,,,,,,,,,,,,,,,,",
",,,,,,,,,,,,,,,,,,,,,,,,,,,,,,,,,,,..->>>;;;;*X....  ,,,,,,,,,,,,,,,,,,,,,,,,,,,,,,,,,,,,,,,,,,,,,,,",
",,,,,,,,,,,,,,,,,,,,,,,,,,,,,,,,,, .O>>>>;;;;;*o.......  ,,,,,,,,,,,,,,,,,,,,,,,,,,,,,,,,,,,,,,,,,,,",
",,,,,,,,,,,,,,,,,,,,,,,,,,,,,,,,, .X=>>>:;;;;;;;-*$+OX.... ,,,,,,,,,,,,,,,,,,,,,,,,,,,,,,,,,,,,,,,,,",
",,,,,,,,,,,,,,,,,,,,,,,,,,,,,,,, ..$>>>>;;;;;;;;;;;;-=$+o... ,,,,,,,,,,,,,,,,,,,,,,,,,,,,,,,,,,,,,,,",
",,,,,,,,,,,,,,,,,,,,,,,,,,,,,,, ..#>>>>;;;;;;;;;;;;;;;;=*#O... ,,,,,,,,,,,,,,,,,,,,,,,,,,,,,,,,,,,,,",
",,,,,,,,,,,,,,,,,,,,,,,,,,,,,, .X$>>>:;;;;;;;;;;;;;;;;;;;=&$O... ,,,,,,,,,,,,,,,,,,,,,,,,,,,,,,,,,,,",
",,,,,,,,,,,,,,,,,,,,,,,,,,,,, .X&>>>;;;;;;;;;;;;;;;;;;;;;;;=&#o.. ,,,,,,,,,,,,,,,,,,,,,,,,,,,,,,,,,,",
",,,,,,,,,,,,,,,,,,,,,,,,,,,, ..&>>>;;;;;;;;;;;;;;;;;;;;;;;;;-&&+...,,,,,,,,,,,,,,,,,,,,,,,,,,,,,,,,,",
",,,,,,,,,,,,,,,,,,,,,,,,,,,,..@>>>;;;;;;;;;;;;;;;;;;;;;;;;;;;-*&#X..,,,,,,,,,,,,,,,,,,,,,,,,,,,,,,,,",
",,,,,,,,,,,,,,,,,,,,,,,,,,,,.X->>:;;;;;*%=;;;;;;;;;;;;;;;;;;;;;*&%o..,,,,,,,,,,,,,,,,,,,,,,,,,,,,,,,",
",,,,,,,,,,,,,,,,,,,,,,,,,,, .+>>>;;;;-+...@;;;;;;;;;;;;;;;;;;;;;*&%o..,,,,,,,,,,,,,,,,,,,,,,,,,,,,,,",
",,,,,,,,,,,,,,,,,,,,,,,,,,,..&>>;;;;;+.....%;;;;;;;;;;;;;;;;;;;;;&&%o..,,,,,,,,,,,,,,,,,,,,,,,,,,,,,",
",,,,,,,,,,,,,,,,,,,,,,,,,, .o>>>;;;;&......@;;;;;;;;;;;;;;;;;;;;;-&&%o. ,,,,,,,,,,,,,,,,,,,,,,,,,,,,",
",,,,,,,,,,,,,,,,,,,,,,,,,, .@>>:;;;;O......%;;;;;;;;;;;;;;;;;;;;;;=&&$X. ,,,,,,,,,,,,,,,,,,,,,,,,,,,",
",,,,,,,,,,,,,,,,,,,,,,,,,,..*>>;;;;-X....X#;;;;;;;;;;;;;;;;;;;;;;;;&&&@..,,,,,,,,,,,,,,,,,,,,,,,,,,,",
",,,,,,,,,,,,,,,,,,,,,,,,, .o>>>;;;;%+&=**-;;;;;;;;;;;;;;;;;;;;;;;;;=&&&O..,,,,,,,,,,,,,,,,,,,,,,,,,,",
",,,,,,,,,,,,,,,,,,,,,,,,,..@>>:;;;;-;;;;;;;;;;;;;;;;;;;;;;;;;;;;;;;;&&&%X. ,,,,,,,,,,,,,,,,,,,,,,,,,",
",,,,,,,,,,,,,,,,,,,,,,,,,.X->>;;;;;;;;;;;;;;;;;;;;;;;;;;;;;;;;;;;;;;=&&&+..,,,,,,,,,,,,,,,,,,,,,,,,,",
",,,,,,,,,,,,,,,,,,,,,,,,..+>>>;;;;;;;;;;;;;;;;;;;;;;;-;;;;;;;;;;;;;;-&&&&X. ,,,,,,,,,,,,,,,,,,,,,,,,",
",,,,,,,,,,,,,,,,,,,,,,, .X->>:;;;;;;;;;;;;;;;;;;;;;;**;;;;;;;;;;;;;;;&&&&@..,,,,,,,,,,,,,,,,,,,,,,,,",
",,,,,,,,,,,,,,,,,,,,,,,..#>>:;;;;;;;;;;;;;;;;;;;;;;-&*;;;;;;;;;;;;;;;*&&&%X.,,,,,,,,,,,,,,,,,,,,,,,,",
",,,,,,,,,,,,,,,,,,,,,, .O>>>;;;;;;;;;;;;;;;;;;;;;;;*&&;;;;;;;;;;;;;;;=&&&&+. ,,,,,,,,,,,,,,,,,,,,,,,",
",,,,,,,,,,,,,,,,,,,,, .X=>>;;;;;;;;;;;;;;;;;;;;;;;=&&&;;;;;;;;;;;;;;;=&&&&#..,,,,,,,,,,,,,,,,,,,,,,,",
",,,,,,,,,,,,,,,,,,,,,..$>>;;;;;;;;;;;;;;;;;;;;;;;;&&&*;;;;;;;;;;;;;;;-&&&&&o.,,,,,,,,,,,,,,,,,,,,,,,",
",,,,,,,,,,,,,,,,,,,,..+>>:;;;;;;;;;;;;;;;;;;;;;;;*&&&*;;;;;;;;;;;;;;;-&&&&&+. ,,,,,,,,,,,,,,,,,,,,,,",
",,,,,,,,,,,,,,,,,,, .o;>:;;;;;;;;;;;;;;;;;;;;;;;#O&&&=;;;;;;;;;;;;;;;-&&&&&#..,,,,,,,,,,,,,,,,,,,,,,",
",,,,,,,,,,,,,,,,,, ..*>>;;;;;;;;;;;;;;;;;;;;;;;%..@&&=;;;;;;;;;;;;;;;;&&&&&%..,,,,,,,,,,,,,,,,,,,,,,",
",,,,,,,,,,,,,,,,,,..@>>;;;;;;;;;;;;;;;;;;;;;;;&X..o&&;;;;;;;;;;;;;;;;-&&&&&&o.,,,,,,,,,,,,,,,,,,,,,,",
",,,,,,,,,,,,,,,,, .O:>;;;;;;;;;;;;;;;;;;;;;;;&X....#*;;;;;;;;;;;;;;;;-&&&&&&O. ,,,,,,,,,,,,,,,,,,,,,",
",,,,,,,,,,,,,,,, .X=>:;;;;;;;;;;;;;;;;;;;;;;%X. , .+=;;;;;;;;;;;;;;;;-&&&&&&+. ,,,,,,,,,,,,,,,,,,,,,",
",,,,,,,,,,,,,,,,..$>:;;;;;;;;;;;--;;;;;;;;;#.. ,, .O-;;;;;;;;;;;;;;;;=&&&&&&@. ,,,,,,,,,,,,,,,,,,,,,",
",,,,,,,,,,,,,,, .O>>;;;;;;;;;;;=&&&=;;;;;=+.. ,,, .+;;;;;;;;;;;;;;;;;=&&&&&&#..,,,,,,,,,,,,,,,,,,,,,",
",,,,,,,,,,,,,,,..$>;;;;;;;;;;;;*&&&&*=;-@X.. ,,,,..#;;;;;;;;;;;;;;;;;*&&&&&&$..,,,,,,,,,,,,,,,,,,,,,",
",,,,,,,,,,,,,,,..&;;;;;;;;;;;;-&&&#@+Oo....,,,,, .X-;;;;;;;;;;;;;;;;;&&&&&&&%..,,,,,,,,,,,,,,,,,,,,,",
",,,,,,,,,,,,,,,..$;;;;;;;;;;;;*&#o....... ,,,,,,..+;;;;;;;;;;;;;;;;;=&&&&&&&%..,,,,,,,,,,,,,,,,,,,,,",
",,,,,,,,,,,,,,, .O;;;;;;;;;;;;&#...    ,,,,,,,, .o-;;;;;;;;;;;;;;;;:*&&&&&&&&..,,,,,,,,,,,,,,,,,,,,,",
",,,,,,,,,,,,,,,,..#;;;;;;;;;;=$X. ,,,,,,,,,,,, ..&;;;;;;;;;;;;;;;;;;&&&&&&&&&..,,,,,,,,,,,,,,,,,,,,,",
",,,,,,,,,,,,,,,, ..+=;;;;;;;;&O..,,,,,,,,,,,, ..$;;;;;;;;;;;;;;;;;;=&&&&&&&&%..,,,,,,,,,,,,,,,,,,,,,",
",,,,,,,,,,,,,,,,, ..X+&;;;;;*@..,,,,,,,,,,,, ..$;;;;;;;;;;;;;;;;;;;&&&&&&&&&$..,,,,,,,,,,,,,,,,,,,,,",
",,,,,,,,,,,,,,,,,,,....o+$=-#.. ,,,,,,,,,,,..X%;;;;;;;;;;;;;;;;;;;=&&&&&&&&&#..,,,,,,,,,,,,,,,,,,,,,",
",,,,,,,,,,,,,,,,,,,,, ........ ,,,,,,,,,, ..o*;;;;;;;;;;;;;;;;;;;-&&&&&&&&&&+. ,,,,,,,,,,,,,,,,,,,,,",
",,,,,,,,,,,,,,,,,,,,,,,, .... ,,,,,,,,,, ..O-;;;;;;;;;;;;;;;;;;;;*&&&&&&&&&&O. ,,,,,,,,,,,,,,,,,,,,,",
",,,,,,,,,,,,,,,,,,,,,,,,,,,,,,,,,,,,,,, ..+;;;;;;;;;;;;;;;;;;;;;=&&&&&&&&&&&o.,,,,,,,,,,,,,,,,,,,,,,",
",,,,,,,,,,,,,,,,,,,,,,,,,,,,,,,,,,,,,, ..@;;;;;;;;;;;;;;;;;;;;;-&&&&&&&&&&&&..,,,,,,,,,,,,,,,,,,,,,,",
",,,,,,,,,,,,,,,,,,,,,,,,,,,,,,,,,,,,, ..#;;;;;;;;;;;;;;;;;;;;;;*&&&&&&&&&&&#..,,,,,,,,,,,,,,,,,,,,,,",
",,,,,,,,,,,,,,,,,,,,,,,,,,,,,,,,,,,, ..#;;;;;;;;;;;;;;;;;;;;;;=&&&&&&&&&&&&+. ,,,,,,,,,,,,,,,,,,,,,,",
",,,,,,,,,,,,,,,,,,,,,,,,,,,,,,,,,,, ..@;;;;;;;;;;;;;;;;;;;;;;-&&&&&&&&&&&&&O. ,,,,,,,,,,,,,,,,,,,,,,",
",,,,,,,,,,,,,,,,,,,,,,,,,,,,,,,,,,,..+;;;;;;;;;;;;;;;;;;;;;;;*&&&&&&&&&&&&&..,,,,,,,,,,,,,,,,,,,,,,,",
",,,,,,,,,,,,,,,,,,,,,,,,,,,,,,,,,, .o-;;;;;;;;;;;;;;;;;;;;;;=&&&&&&&&&&&&&#..,,,,,,,,,,,,,,,,,,,,,,,",
",,,,,,,,,,,,,,,,,,,,,,,,,,,,,,,,, .X*;;;;;;;;;;;;;;;;;;;;;;-&&&&&&&&&&&&&&+. ,,,,,,,,,,,,,,,,,,,,,,,",
",,,,,,,,,,,,,,,,,,,,,,,,,,,,,,,,,..@;;;;;;;;;;;;;;;;;;;;;;;*&&&&&&&&&&&&&&o. ,,,,,,,,,,,,,,,,,,,,,,,",
",,,,,,,,,,,,,,,,,,,,,,,,,,,,,,,, .o-;;;;;;;;;;;;;;;;;;;;;;-&&&&&&&&&&&&&&%..,,,,,,,,,,,,,,,,,,,,,,,,",
",,,,,,,,,,,,,,,,,,,,,,,,,,,,,,,,..@;;;;;;;;;;;;;;;;;;;;;;;=&&&&&&&&&&&&&&@..,,,,,,,,,,,,,,,,,,,,,,,,",
",,,,,,,,,,,,,,,,,,,,,,,,,,,,,,,,..=;;;;;;-=*&%%$$########$@###$%&&&&&&&&&O. ,,,,,,,,,,,,,,,,,,,,,,,,",
",,,,,,,,,,,,,,,,,,,,,,,,,,,,,,, .O$@+OoXX........................XXoOO+@$X.,,,,,,,,,,,,,,,,,,,,,,,,,",
",,,,,,,,,,,,,,,,,,,,,,,,,,,,,,, ................XXXXooXXXX.................,,,,,,,,,,,,,,,,,,,,,,,,,",
",,,,,,,,,,,,,,,,,,,,,,,,,,,,, .....oO+@#$%*=-->>>>>>>>>>>>>>--=*%$#@+Oo..... ,,,,,,,,,,,,,,,,,,,,,,,",
",,,,,,,,,,,,,,,,,,,,,,,,,,, ...O@*:>>>>>>>>>>>>>>>>>>>>>>>>>>>>>>>>>>>>;$@O... ,,,,,,,,,,,,,,,,,,,,,",
",,,,,,,,,,,,,,,,,,,,,,,,,, ..+=>>>>>>>>>>>>>>>>>>>>>>>>>>>>>>>>>>>>>>>>>>>>*O.. ,,,,,,,,,,,,,,,,,,,,",
",,,,,,,,,,,,,,,,,,,,,,,,, ..$>>>>>>>>::::::::;;;;;;;;;;;;;;;;::::::::>>>>>>>>#.. ,,,,,,,,,,,,,,,,,,,",
",,,,,,,,,,,,,,,,,,,,,,,,,..#>>::;;;;;;;;;;;;;;;;;;;;;;;;;;;;;;;;;;;;;;;;;;::>>@..,,,,,,,,,,,,,,,,,,,",
",,,,,,,,,,,,,,,,,,,,,,,, .o;;;;;;;;;;;;;;;;;;;;;;;;;;;;;;;;;;;;;;;;;;;;;;;;;;;-X.,,,,,,,,,,,,,,,,,,,",
",,,,,,,,,,,,,,,,,,,,,,,, .@;;;;;;;;;;;;;;;;;;;;;;;;;;;;;;;;;;;;;;;;;;;;;;;;;;;;+. ,,,,,,,,,,,,,,,,,,",
",,,,,,,,,,,,,,,,,,,,,,,,..&;;;;;;;;;;;;;;;;;;;;;;;;;;;;;;;;;;;;;;;;;;;;;;;;;;;;$..,,,,,,,,,,,,,,,,,,",
",,,,,,,,,,,,,,,,,,,,,,,,..=;;;;;;;;;;;;;;;;;;;;;;;;;;;;;;;;;;;;;;;;;;;;;;;;;;;;*..,,,,,,,,,,,,,,,,,,",
",,,,,,,,,,,,,,,,,,,,,,,,..;;;;;;;;;;;;;;;;;;;;;;;;;;;;;;;;;;;;;;;;;;;;;;;;;;;;;=..,,,,,,,,,,,,,,,,,,",
",,,,,,,,,,,,,,,,,,,,,,,,.X;;;;;;;;;;;;;;;;;;;;;;;;;;;;;;;;;;;;;;;;;;;;;;;;;;;;;;..,,,,,,,,,,,,,,,,,,",
",,,,,,,,,,,,,,,,,,,,,,,,.o;;;;;;;;;;;;;;;;;;;;;;;;;;;;;;;;;;;;;;;;;;;;;;;;;;;;;;..,,,,,,,,,,,,,,,,,,",
",,,,,,,,,,,,,,,,,,,,,,,,.o;;;;;;;;;;;;;;;;;;;;;;;;;;;;;;;;;;;;;;;;;;;;;;;;;;;;;;..,,,,,,,,,,,,,,,,,,",
",,,,,,,,,,,,,,,,,,,,,,,,.o;;;;;;;;;;;;;;;;;;;;;;;;;;;;;;;;;;;;;;;;;;;;;;;;;;;;;;..,,,,,,,,,,,,,,,,,,",
",,,,,,,,,,,,,,,,,,,,,,,,.XOOOOOOOOOOOOOOOOOOOOOOOOOOOOOOOOOOOOOOOOOOOOOOOOOOOOOO..,,,,,,,,,,,,,,,,,,",
",,,,,,,,,,,,,,,,,,,,,,,,..........................................................,,,,,,,,,,,,,,,,,,",
",,,,,,,,,,,,,,,,,,,,,,,,                                                          ,,,,,,,,,,,,,,,,,,",
",,,,,,,,,,,,,,,,,,,,,,,,,,,,,,,,,,,,,,,,,,,,,,,,,,,,,,,,,,,,,,,,,,,,,,,,,,,,,,,,,,,,,,,,,,,,,,,,,,,,",
",,,,,,,,,,,,,,,,,,,,,,,,,,,,,,,,,,,,,,,,,,,,,,,,,,,,,,,,,,,,,,,,,,,,,,,,,,,,,,,,,,,,,,,,,,,,,,,,,,,,",
",,,,,,,,,,,,,,,,,,,,,,,,,,,,,,,,,,,,,,,,,,,,,,,,,,,,,,,,,,,,,,,,,,,,,,,,,,,,,,,,,,,,,,,,,,,,,,,,,,,,",
",,,,,,,,,,,,,,,,,,,,,,,,,,,,,,,,,,,,,,,,,,,,,,,,,,,,,,,,,,,,,,,,,,,,,,,,,,,,,,,,,,,,,,,,,,,,,,,,,,,,",
",,,,,,,,,,,,,,,,,,,,,,,,,,,,,,,,,,,,,,,,,,,,,,,,,,,,,,,,,,,,,,,,,,,,,,,,,,,,,,,,,,,,,,,,,,,,,,,,,,,,",
",,,,,,,,,,,,,,,,,,,,,,,,,,,,,,,,,,,,,,,,,,,,,,,,,,,,,,,,,,,,,,,,,,,,,,,,,,,,,,,,,,,,,,,,,,,,,,,,,,,,",
",,,,,,,,,,,,,,,,,,,,,,,,,,,,,,,,,,,,,,,,,,,,,,,,,,,,,,,,,,,,,,,,,,,,,,,,,,,,,,,,,,,,,,,,,,,,,,,,,,,,",
",,,,,,,,,,,,,,,,,,,,,,,,,,,,,,,,,,,,,,,,,,,,,,,,,,,,,,,,,,,,,,,,,,,,,,,,,,,,,,,,,,,,,,,,,,,,,,,,,,,,",
",,,,,,,,,,,,,,,,,,,,,,,,,,,,,,,,,,,,,,,,,,,,,,,,,,,,,,,,,,,,,,,,,,,,,,,,,,,,,,,,,,,,,,,,,,,,,,,,,,,,"
};
