/* XPM */
static char *result[] = {
/* columns rows colors chars-per-pixel */
"100 100 16 1 ",
"  c gray27",
". c #464646",
"X c gray36",
"o c #717171",
"O c gray49",
"+ c gray56",
"@ c gray62",
"# c #B4B4B4",
"$ c gray78",
"% c LightGray",
"& c gray87",
"* c gray91",
"= c gray95",
"- c #F9F9F9",
"; c white",
": c None",
/* pixels */
"::::::::::::::::::::::::::::::::::::::::::::::::::::::::::::::::::::::::::::::::::::::::::::::::::::",
"::::::::::::::::::::::::::::::::::::::::::::::::::::::::::::::::::::::::::::::::::::::::::::::::::::",
"::::::::::::::::::::::::::::::::::::::::::::::::::::::::::::::::::::::::::::::::::::::::::::::::::::",
"::::::::::::::::::::::::::::::::::::::::::::::::::::::::::::::::::::::::::::::::::::::::::::::::::::",
"::::::::::::::::::::::::::::::::::::::::::::::::::::::::::::::::::::::::::::::::::::::::::::::::::::",
"::::::::::::::::::::::::::::::::::::::::::::::::::::::::::::::::::::::::::::::::::::::::::::::::::::",
"::::::::::::::::::::::::::::::::::::::::::::::::::::::::::::::::::::::::::::::::::::::::::::::::::::",
"::::::::::::::::::::::::::::::::::::::::::::::::::::::::::::::::::::::::::::::::::::::::::::::::::::",
"::::::::::::::::::::::::::::::::::::::::::::::::::::::::::::::::::::::::::::::::::::::::::::::::::::",
"::::::::::::::::::::::::::::::::::::::::::::::::::::::::::::::::::::::::::::::::::::::::::::::::::::",
"::::::::::::::::::::::::::::::::::::::::::::::::::::::::::::::::::::::::::::::::::::::::::::::::::::",
"::::::::::::::::::::::::::::::::::::::::::::::::::::::::::::::::::::::::::::::::::::::::::::::::::::",
"::::::::::::::::::::::::::::::::::::::::::::::::::::::::::::::::::::::::::::::::::::::::::::::::::::",
"::::::::::::::::::::::::::::::::::::::::::::::::::::::::::::::::::::::::::::::::::::::::::::::::::::",
"::::::::::::::::::::::::::::::::::::::::::::::::::::::::::::::::::::::::::::::::::::::::::::::::::::",
"::::::::::::::::::::::::::::::::::::::::::::::::::::::::::::::::::::::::::::::::::::::::::::::::::::",
"::::::::::::::::::::::::::::::::::::::::::::::::::::::::::::::::::::::::::::::::::::::::::::::::::::",
"::::::::::::::::::::::::::::::::::::::::::::::::::::::::::::::::::::::::::::::::::::::::::::::::::::",
"::::::::::::::::::::::::::::::::::::::::::::::::::::::::::::::::::::::::::::::::::::::::::::::::::::",
"::::::::::::::::::::::::::::::::::::::::::::::::::::::::::::::::::::::::::::::::::::::::::::::::::::",
"::::::::::::::::::::::::::::::::::::::::::::::::::::::::::::::::::::::::::::::::::::::::::::::::::::",
"::::::::::::::::::::::::::::::::::::::::::::::::::::::::::::::::::::::::::::::::::::::::::::::::::::",
":::::::::::::::::::::::::::::::::::::::::::::::::  :::::::::::::::::::::::::::::::::::::::::::::::::",
"::::::::::::::::::::::::::::::::::::::::::::: ........ :::::::::::::::::::::::::::::::::::::::::::::",
"::::::::::::::::::::::::::::::::::::::::::: ....XooX.... :::::::::::::::::::::::::::::::::::::::::::",
"::::::::::::::::::::::::::::::::::::::::: ...+$-----=$O... :::::::::::::::::::::::::::::::::::::::::",
":::::::::::::::::::::::::::::::::::::::: ..o&;---------&o.. ::::::::::::::::::::::::::::::::::::::::",
"::::::::::::::::::::::::::::::::::::::: ..@;;-----------=+.. :::::::::::::::::::::::::::::::::::::::",
":::::::::::::::::::::::::::::::::::::::..#;;-------------=+..:::::::::::::::::::::::::::::::::::::::",
"::::::::::::::::::::::::::::::::::::::..+;;---------------&o. ::::::::::::::::::::::::::::::::::::::",
"::::::::::::::::::::::::::::::::::::: .X=;----------------*$.. :::::::::::::::::::::::::::::::::::::",
":::::::::::::::::::::::::::::::::::::..#;;-------=---=-----%+. :::::::::::::::::::::::::::::::::::::",
":::::::::::::::::::::::::::::::::::::..=;-----=------------&$..:::::::::::::::::::::::::::::::::::::",
":::::::::::::::::::::::::::::::::::: .O;;------------------&%X. ::::::::::::::::::::::::::::::::::::",
":::::::::::::::::::::::::::::::::::: .@;-----------=-------*%O. ::::::::::::::::::::::::::::::::::::",
":::::::::::::::::::::::::::::::::::: .#;----=---=------=---&%+. ::::::::::::::::::::::::::::::::::::",
":::::::::::::::::::::::::::::::::::: .#;-------------------&%+. ::::::::::::::::::::::::::::::::::::",
":::::::::::::::::::::::::::::::::::: .#--------------------%%+. ::::::::::::::::::::::::::::::::::::",
":::::::::::::::::::::::::::::::::::: .+------=----=-------*%%o. ::::::::::::::::::::::::::::::::::::",
":::::::::::::::::::::::::::::::::::: .o---------------=---&%%X.:::::::::::::::::::::::::::::::::::::",
":::::::::::::::::::::::::::::::::::::..&--------=--------*%%#..:::::::::::::::::::::::::::::::::::::",
"::::::::::::::::::::::::::::::::::::: .+---=------------=%%%o. :::::::::::::::::::::::::::::::::::::",
"::::::::::::::::::::::::::::::::::::::..&--------------=%%%#..::::::::::::::::::::::::::::::::::::::",
":::::::::::::::::::::::::::::::::::::: .X=------------*%%%$X. ::::::::::::::::::::::::::::::::::::::",
":::::::::::::::::::::::::::::::::::::::..O=---------=&%%%$o..:::::::::::::::::::::::::::::::::::::::",
"::::::::::::::::::::::::::::::::::::::::..o*------*&%%%%$X..::::::::::::::::::::::::::::::::::::::::",
"::::::::::::::::::::::::::::::::::::::::...O----=*******o.. ::::::::::::::::::::::::::::::::::::::::",
":::::::::::::::::::::::::::::::::::::: ...#-------------*+... ::::::::::::::::::::::::::::::::::::::",
"::::::::::::::::::::::::::::::::::::: ..o*;--------------&#X.. :::::::::::::::::::::::::::::::::::::",
"::::::::::::::::::::::::::::::::::: ...#;;---------------=%%+... :::::::::::::::::::::::::::::::::::",
":::::::::::::::::::::::::::::::::: ..o*;;;-----=----------%%%#X.. ::::::::::::::::::::::::::::::::::",
"::::::::::::::::::::::::::::::::::..#-;;;------------=----&%%%%+..::::::::::::::::::::::::::::::::::",
"::::::::::::::::::::::::::::::::::..&-------------=------=%%%%%#..::::::::::::::::::::::::::::::::::",
"::::::::::::::::::::::::::::::::::..#---------=----------*%%%%%+. ::::::::::::::::::::::::::::::::::",
":::::::::::::::::::::::::::::::::: .X-------------------=%%%%%%X. ::::::::::::::::::::::::::::::::::",
":::::::::::::::::::::::::::::::::::..ooooooo%&&&&&&&&&&%ooooooo..:::::::::::::::::::::::::::::::::::",
"::::::::::::::::::::::::::::::::::: ........%%%%%%%%%%%$........ :::::::::::::::::::::::::::::::::::",
"::::::::::::::::::::::::::::::::::::      .X%%%%%%%%%%%%..      ::::::::::::::::::::::::::::::::::::",
"::::::::::::::::::::::::::::::::::::::::: .o*%%%%%%%%%%%X.::::::::::::::::::::::::::::::::::::::::::",
"::::::::::::::::::::::::::::::::::::::::: .+-*%%%%%%%%%%O. :::::::::::::::::::::::::::::::::::::::::",
":::::::::::::::::::::::::::::::::::::::::..#--*%%%%%%%%%@. :::::::::::::::::::::::::::::::::::::::::",
":::::::::::::::::::::::::::::::::::::::::..*---*%%%%%%%%$..:::::::::::::::::::::::::::::::::::::::::",
":::::::::::::::::::::::::::::::::::::::: .o-----*%%%%%%%%X. ::::::::::::::::::::::::::::::::::::::::",
"::::::::::::::::::::::::::::::::::::::::..#------*%%%%%%%@..::::::::::::::::::::::::::::::::::::::::",
"::::::::::::::::::::::::::::::::::::::: .X--------*%%%%%%$.. :::::::::::::::::::::::::::::::::::::::",
":::::::::::::::::::::::::::::::::::::::..#---------*%%%%%%+..:::::::::::::::::::::::::::::::::::::::",
":::::::::::::::::::::::::::::::::::::: .o;----------*%%%%%%X. ::::::::::::::::::::::::::::::::::::::",
"::::::::::::::::::::::::::::::::::::: ..&;-----------*%%%%%#.. :::::::::::::::::::::::::::::::::::::",
":::::::::::::::::::::::::::::::::::: ..#;------=------*%%%%%+.. ::::::::::::::::::::::::::::::::::::",
"::::::::::::::::::::::::::::::::::: ..@;;--------------*%%%%%O.. :::::::::::::::::::::::::::::::::::",
":::::::::::::::::::::::::::::::::: ..+;;;---------=-----=%%%%%O.. ::::::::::::::::::::::::::::::::::",
"::::::::::::::::::::::::::::::::: ..@;;;-----=-----------=&%%%%O.. :::::::::::::::::::::::::::::::::",
"::::::::::::::::::::::::::::::: ...#;;;;-------------------*%%%%+...::::::::::::::::::::::::::::::::",
":::::::::::::::::::::::::::::: ..X&;;;;----------=----=-----=*%%%#X.. ::::::::::::::::::::::::::::::",
"::::::::::::::::::::::::::::: ..@-;;;;----=--------------------*&%$O.. :::::::::::::::::::::::::::::",
":::::::::::::::::::::::::::: .X$;;;;;----------=----=----=-------=*&@.. ::::::::::::::::::::::::::::",
"::::::::::::::::::::::::::: .X&;;;;---------=------------------------%.. :::::::::::::::::::::::::::",
":::::::::::::::::::::::::: ..%;;;;-------=-------=----=-------=-------$.. ::::::::::::::::::::::::::",
"::::::::::::::::::::::::::..@;;;;------=-----------------=-------------+..::::::::::::::::::::::::::",
"::::::::::::::::::::::::: .X-;;---------------=----=--------=-----=----*X. :::::::::::::::::::::::::",
":::::::::::::::::::::::::..#;;------=-----=------------=--------=-------@. :::::::::::::::::::::::::",
":::::::::::::::::::::::::..=;----=---------------=----------------------*..:::::::::::::::::::::::::",
":::::::::::::::::::::::: .O;----------=-----=-------=----=---=-----=-----o. ::::::::::::::::::::::::",
":::::::::::::::::::::::: .#;-------------=----=--------------------------@. ::::::::::::::::::::::::",
"::::::::::::::::::::::::..&-----=---=---------------------------=--------$..::::::::::::::::::::::::",
"::::::::::::::::::::::::..=-----------------------=----=---=-------------*..::::::::::::::::::::::::",
"::::::::::::::::::::::::..-----------------------------------------=------..::::::::::::::::::::::::",
"::::::::::::::::::::::::.X------------------------------------------------..::::::::::::::::::::::::",
"::::::::::::::::::::::::..OOOOOOOOOOOOOOOOOOOOOOOOOOOOOOOOOOOOOOOOOOOOOOOO..::::::::::::::::::::::::",
"::::::::::::::::::::::::....................................................::::::::::::::::::::::::",
"::::::::::::::::::::::::                                                    ::::::::::::::::::::::::",
"::::::::::::::::::::::::::::::::::::::::::::::::::::::::::::::::::::::::::::::::::::::::::::::::::::",
"::::::::::::::::::::::::::::::::::::::::::::::::::::::::::::::::::::::::::::::::::::::::::::::::::::",
"::::::::::::::::::::::::::::::::::::::::::::::::::::::::::::::::::::::::::::::::::::::::::::::::::::",
"::::::::::::::::::::::::::::::::::::::::::::::::::::::::::::::::::::::::::::::::::::::::::::::::::::",
"::::::::::::::::::::::::::::::::::::::::::::::::::::::::::::::::::::::::::::::::::::::::::::::::::::",
"::::::::::::::::::::::::::::::::::::::::::::::::::::::::::::::::::::::::::::::::::::::::::::::::::::",
"::::::::::::::::::::::::::::::::::::::::::::::::::::::::::::::::::::::::::::::::::::::::::::::::::::",
"::::::::::::::::::::::::::::::::::::::::::::::::::::::::::::::::::::::::::::::::::::::::::::::::::::",
"::::::::::::::::::::::::::::::::::::::::::::::::::::::::::::::::::::::::::::::::::::::::::::::::::::"
};
