/* XPM */
static char *result[] = {
/* columns rows colors chars-per-pixel */
"100 100 19 1 ",
"  c #444444",
". c gray27",
"X c #464646",
"o c #515151",
"O c #5F5F5F",
"+ c #6D6D6D",
"@ c gray49",
"# c #8D8D8D",
"$ c gray63",
"% c gray69",
"& c gray75",
"* c gray80",
"= c gray83",
"- c #DFDFDF",
"; c #E9E9E9",
": c gray95",
"> c #F9F9F9",
", c white",
"< c None",
/* pixels */
"<<<<<<<<<<<<<<<<<<<<<<<<<<<<<<<<<<<<<<<<<<<<<<<<<<<<<<<<<<<<<<<<<<<<<<<<<<<<<<<<<<<<<<<<<<<<<<<<<<<<",
"<<<<<<<<<<<<<<<<<<<<<<<<<<<<<<<<<<<<<<<<<<<<<<<<<<<<<<<<<<<<<<<<<<<<<<<<<<<<<<<<<<<<<<<<<<<<<<<<<<<<",
"<<<<<<<<<<<<<<<<<<<<<<<<<<<<<<<<<<<<<<<<<<<<<<<<<<<<<<<<<<<<<<<<<<<<<<<<<<<<<<<<<<<<<<<<<<<<<<<<<<<<",
"<<<<<<<<<<<<<<<<<<<<<<<<<<<<<<<<<<<<<<<<<<<<<<<<<<<<<<<<<<<<<<<<<<<<<<<<<<<<<<<<<<<<<<<<<<<<<<<<<<<<",
"<<<<<<<<<<<<<<<<<<<<<<<<<<<<<<<<<<<<<<<<<<<<<<<<<<<<<<<<<<<<<<<<<<<<<<<<<<<<<<<<<<<<<<<<<<<<<<<<<<<<",
"<<<<<<<<<<<<<<<<<<<<<<<<<<<<<<<<<<<<<<<<<<<<<<<<<<<<<<<<<<<<<<<<<<<<<<<<<<<<<<<<<<<<<<<<<<<<<<<<<<<<",
"<<<<<<<<<<<<<<<<<<<<<<<<<<<<<<<<<<<<<<<<<<<<<<<<<<<<<<<<<<<<<<<<<<<<<<<<<<<<<<<<<<<<<<<<<<<<<<<<<<<<",
"<<<<<<<<<<<<<<<<<<<<<<<<<<<<<<<<<<<<<<<<<<<<<<<<<<<<<<<<<<<<<<<<<<<<<<<<<<<<<<<<<<<<<<<<<<<<<<<<<<<<",
"<<<<<<<<<<<<<<<<<<<<<<<<<<<<<<<<<<<<<<<<<<<<<<<<<<<<<<<<<<<<<<<<<<<<<<<<<<<<<<<<<<<<<<<<<<<<<<<<<<<<",
"<<<<<<<<<<<<<<<<<<<<<<<<<<<<<<<<<<<<<<<<<<<<<<<<<<<<<<<<<<<<<<<<<<<<<<<<<<<<<<<<<<<<<<<<<<<<<<<<<<<<",
"<<<<<<<<<<<<<<<<<<<<<<<<<<<<<<<<<<<<<<<<<<<<<<<<<<<<<<<<<<<<<<<<<<<<<<<<<<<<<<<<<<<<<<<<<<<<<<<<<<<<",
"<<<<<<<<<<<<<<<<<<<<<<<<<<<<<<<<<<<.XXXXX. <<<<<<<<<<<<<<<.XXXXX. <<<<<<<<<<<<<<<<<<<<<<<<<<<<<<<<<<",
"<<<<<<<<<<<<<<<<<<<<<<<<<<<<<<<<<.XXXXoXXXXX<<<<<<<<<<<<.XXXXoXXXX.<<<<<<<<<<<<<<<<<<<<<<<<<<<<<<<<<",
"<<<<<<<<<<<<<<<<<<<<<<<<<<<<<<<<.XX+&:>>-$oXX.<<<<<<<<<.XX+&>>>-$oXX<<<<<<<<<<<<<<<<<<<<<<<<<<<<<<<<",
"<<<<<<<<<<<<<<<<<<<<<<<<<<<<<<<.XX%,,>>>>>;+XX<<<<<<<<.XX%,,>>>>>-+XX<<<<<<<<<<<<<<<<<<<<<<<<<<<<<<<",
"<<<<<<<<<<<<<<<<<<<<<<<<<<<<<<<XX%,,>>>>>>>=+X.<<<<<<<XX&,>>>>>>>>=OX.<<<<<<<<<<<<<<<<<<<<<<<<<<<<<<",
"<<<<<<<<<<<<<<<<<<<<<<<<<<<<<<.X+,,>>>>>>>>-&XX<<<<<<.X@,,>>>>>>>>-&XX<<<<<<<<<<<<<<<<<<<<<<<<<<<<<<",
"<<<<<<<<<<<<<<<<<<<<<<<<<<<<<<XX&,>>>>>>>>>-=@X.<<<<<XX=,>>>>>>>>>==+X.<<<<<<<<<<<<<<<<<<<<<<<<<<<<<",
"<<<<<<<<<<<<<<<<<<<<<<<<<<<<<<XX>,>>>>>>>>:==$XX<<<<<Xo,>>>>>>>>>:==#X.<<<<<<<<<<<<<<<<<<<<<<<<<<<<<",
"<<<<<<<<<<<<<<<<<<<<<<<<<<<<<<Xo,>>>>>>>>>-==%XX<<<<<X+,>>>>>>>>:-==$XX<<<<<<<<<<<<<<<<<<<<<<<<<<<<<",
"<<<<<<<<<<<<<<<<<<<<<<<<<<<<<<Xo,>>>>>>>>;===%XX<<<<<X+,>>>>>>>>-===$X.<<<<<<<<<<<<<<<<<<<<<<<<<<<<<",
"<<<<<<<<<<<<<<<<<<<<<<<<<<<<<<XX;>>>>>>>>====$X.<<<<<Xo>>>>>>>>;====#X.<<<<<<<<<<<<<<<<<<<<<<<<<<<<<",
"<<<<<<<<<<<<<<<<<<<<<<<<<<<<<<.X%>>>>>>>;====+X.<<<<<XX&>>>>>>:=====OX.<<<<<<<<<<<<<<<<<<<<<<<<<<<<<",
"<<<<<<<<<<<<<<<<<<<<<<<<<<<<<< Xo;>>>>>>;===$XX<<<<<<.XO:>>>>>-====$XX<<<<<<<<<<<<<<<<<<<<<<<<<<<<<<",
"<<<<<<<<<<<<<<<<<<<<<<<<<<<<<<<XX+:>>>>>;==%oX.<<<<<<<XX@:>>>>====%XX.<<<<<<<<<<<<<<<<<<<<<<<<<<<<<<",
"<<<<<<<<<<<<<<<<<<<<<<<<<<<<<<<<XXO*>>>>;=%XX.<<<<<<<<<XX+>>>>==*#XX.<<<<<<<<<<<<<<<<<<<<<<<<<<<<<<<",
"<<<<<<<<<<<<<<<<<<<<<<<<<<<<<<<<<XXXO:>>>=*XX<<<<<<<<<<.X@>>>:=$oXX.<<<<<<<<<<<<<<<<<<<<<<<<<<<<<<<<",
"<<<<<<<<<<<<<<<<.XXXXX.<<<<<<<<<<<.XX>>>>-=+X.<<<<<<<<<XX&>>>>=$XX <<<<<<<<<< .XXXX. <<<<<<<<<<<<<<<",
"<<<<<<<<<<<<<<.XXXXoXXXX.<<<<<<<<<<Xo>>>>:=$XX<<<<<<<<<Xo:>>>>=$X.<<<<<<<<<<.XXXoXXXX.<<<<<<<<<<<<<<",
"<<<<<<<<<<<<<.XX+&>>>*@XX.<<<<<<<<<Xo>>>>>-*XX<<<<<<<<.X#>>>>>=$XX<<<<<<<<<XXo%;>>-$oXX<<<<<<<<<<<<<",
"<<<<<<<<<<<< XX%,,>>>>>%oX.<<<<<<<<XO>>>>>:=+X.<<<<<<<XX*>>>>>-%XX<<<<<<<<XX+:,>>>>>;+XX<<<<<<<<<<<<",
"<<<<<<<<<<<<XX$,,>>>>>>-%XX<<<<<<<<X+>>>>>>-$XX<<<<<<<Xo>>>>>>-%XX<<<<<<<.X+>,>>>>>>>-OX.<<<<<<<<<<<",
"<<<<<<<<<<< XO>,>>>>>>>-=@X.<<<<<<.X+>>>>>>;*oX<<<<<<.X#>>>>>>;&XX<<<<<<<XX=,>>>>>>>>:%XX<<<<<<<<<<<",
"<<<<<<<<<<<.X%,>>>>>>>>-=&XX<<<<<<.X@>>>>>>>=@X.<<<<<XX=>>>>>>;&XX<<<<<< X+,>>>>>>>>>:=OX.<<<<<<<<<<",
"<<<<<<<<<<<XX-,>>>>>>>>===oX<<<<<< X@>>>>>>>;%XX<<<<.XO>>>>>>>:*XX<<<<<<.X$,>>>>>>>>>:=@X.<<<<<<<<<<",
"<<<<<<<<<<<XX;>>>>>>>>:===OX<<<<<< X#>>>>>>>>=oX<<<<.X$>>>>>>>:=XX<<<<<<.X%,>>>>>>>>>;=#X.<<<<<<<<<<",
"<<<<<<<<<<<XX=>>>>>>>>;===oX<<<<<<.X#>>>>>>>>-@X.<<<XX=>>>>>>>>=XX<<<<<<.X$>>>>>>>>>>-=@X.<<<<<<<<<<",
"<<<<<<<<<<<.X$>>>>>>>>;==%XX<<<<<<.X$>>>>>>>>:%XX<<.XO>>>>>>>>>=oX<<<<<<.XO>>>>>>>>>-==oX.<<<<<<<<<<",
"<<<<<<<<<<< XO:>>>>>>>;==+X.<<<<<<.X$>>>>>>>>>-oX.<.X$>>>>>>>>>-oX<<<<<<<XX&>>>>>>:-==$XX<<<<<<<<<<<",
"<<<<<<<<<<<<XX#>>>>>>>>-&XX.<<<<<<.X%>>>>>>>>>:#X.<XX->>>>>>>>>-OX<<<<<<<XX+>>>>:-===*oX.<<<<<<<<<<<",
"<<<<<<<<<<<<.XX$>>>>>>>:-#XX.<<<<<.X%>>>>>>>>>>&XX.X+>>>>>>>>>>;OX<<<<<<.XO->>>:====&OXX<<<<<<<<<<<<",
"<<<<<<<<<<<<<.XX+&:>>>>>>-#XX <<<<.X&>>>>>>>>>>;OXXX$>>>>>>>>>>;+X.<<<<.Xo->>>>-==&#oXX<<<<<<<<<<<<<",
"<<<<<<<<<<<<<< XXXX%>>>>>>-#XX <<<XX&>>>>>>>>>>>#XXX->>>>>>>>>>:+X <<<.Xo=>>>>;==OXXX.<<<<<<<<<<<<<<",
"<<<<<<<<<<<<<<<<.XX+>>>>>>>-@XX.<<XX*>>>>:>>>>>>*XX+>>>>>>>>>>>:@X <<.Xo*>>>>>-=&XX. <<<<<<<<<<<<<<<",
"<<<<<<<<<<<<<<<<<<XX=>>>>>>>-@XX<<XX=>>>>>>>>>>>>OX%>>>>>:>>>>>>@X.<.XX&>>>>>;==@X.<<<<<<<<<<<<<<<<<",
"<<<<<<<<<<<<<<<<<<.X#>>>>>>>>-+XX.XX->>>>>>>>>>>>$X;>>>>>>>>>>>>#X..XX&>>>>>>==*oX<<<<<<<<<<<<<<<<<<",
"<<<<<<<<<<<<<<<<<<<Xo;>>>>>>>>-+XXXX;>>>>>>>:>>>>-@>>>>>>>>>>>>>#XXXX%>>>>>>;==#XX<<<<<<<<<<<<<<<<<<",
"<<<<<<<<<<<<<<<<<<<.X$>>>>>>>>>-OXXX:>>>>>>>>>>>>>->>>>>>>>>>>>>$XXX$>>>>>>:===OX <<<<<<<<<<<<<<<<<<",
"<<<<<<<<<<<<<<<<<<< XO>>>>>>>>>>-OXX>>>>:>>>>>>>>>>>>>:>>:>>>:>>$XX$>>>>>>>-==%XX<<<<<<<<<<<<<<<<<<<",
"<<<<<<<<<<<<<<<<<<<<XX*>>>>>>>>>>-Oo>>>>>>>>>>:>>:>>>>>>>>>>>>>>%X#>>>>>>>;===+X.<<<<<<<<<<<<<<<<<<<",
"<<<<<<<<<<<<<<<<<<<<.X@>>>>>>>>>>>-O>>>>>>:>>>>>>>>>:>>>>>>>>>>>&#>>>>>>>:===&XX<<<<<<<<<<<<<<<<<<<<",
"<<<<<<<<<<<<<<<<<<<<<XX->>>>>>>>>>>->>:>>>>>>>>>>>>>>>>>>>>>:>>>;>>>>>>>>;===#X.<<<<<<<<<<<<<<<<<<<<",
"<<<<<<<<<<<<<<<<<<<<<.X$>>>>:>>>>>>>>>>>>>>>>:>>>>>>>>:>>:>>>>>>>>>>>>>>:===*oX.<<<<<<<<<<<<<<<<<<<<",
"<<<<<<<<<<<<<<<<<<<<<.Xo:>>>>>>>>:>>>>>>>>:>>>>>:>>:>>>>>>>>>>>:>>>>>:>>====$XX<<<<<<<<<<<<<<<<<<<<<",
"<<<<<<<<<<<<<<<<<<<<<<XX&>>>>>:>>>>>>>:>>>>>>>>>>>>>>>>>>>>>>>>>>>:>>>>-====+X.<<<<<<<<<<<<<<<<<<<<<",
"<<<<<<<<<<<<<<<<<<<<<<.X+>>>>>>>>>>:>>>>>>>>:>>>>>>>>>>>>:>>>:>>>>>>>>:====&XX<<<<<<<<<<<<<<<<<<<<<<",
"<<<<<<<<<<<<<<<<<<<<<<<XX=>>>>>>>>>>>>>>:>>>>>>:>>>:>>:>>>>>>>>>>>>>>:=====@X.<<<<<<<<<<<<<<<<<<<<<<",
"<<<<<<<<<<<<<<<<<<<<<<<.X#>>>:>>>:>>>>>>>>>>>>>>>>>>>>>>>>>>>>>>>>:>>-====*oX<<<<<<<<<<<<<<<<<<<<<<<",
"<<<<<<<<<<<<<<<<<<<<<<<<Xo;>>>>>>>>>:>>>>>:>>>>>>>>>>>>>>:>>:>>:>>>>;=====#XX<<<<<<<<<<<<<<<<<<<<<<<",
"<<<<<<<<<<<<<<<<<<<<<<<<XX%>>>>>>>>>>>:>>>>>>:>>>:>>:>>>>>>>>>>>>>>;======OX <<<<<<<<<<<<<<<<<<<<<<<",
"<<<<<<<<<<<<<<<<<<<<<<<< XO>>>>:>>>>>>>>>>>>>>>>>>>>>>>:>>>>>>>>>>:======%XX<<<<<<<<<<<<<<<<<<<<<<<<",
"<<<<<<<<<<<<<<<<<<<<<<<<<XX*>>>>>>>:>>>>>>:>>>>>>>>>>>>>>>>>>>>>>:=======+X.<<<<<<<<<<<<<<<<<<<<<<<<",
"<<<<<<<<<<<<<<<<<<<<<<<<<.X@>>>>>>>>>>>:>>>>>:>>:>>>>>>>>:>>:>>>:-======&XX<<<<<<<<<<<<<<<<<<<<<<<<<",
"<<<<<<<<<<<<<<<<<<<<<<<<<<XX->>>:>>>>>>>>>>>>>>>>>>:>>:>>>>>>>>>-=======#X.<<<<<<<<<<<<<<<<<<<<<<<<<",
"<<<<<<<<<<<<<<<<<<<<<<<<<<.X$>>>>>>:>>>>>>>>>>>>>>>>>>>>>>>>>>:-=======*oX.<<<<<<<<<<<<<<<<<<<<<<<<<",
"<<<<<<<<<<<<<<<<<<<<<<<<<<.Xo:>>>>>>>>>:>>>:>>:>>>>>>>>>>>>>>:-========$XX<<<<<<<<<<<<<<<<<<<<<<<<<<",
"<<<<<<<<<<<<<<<<<<<<<<<<<<<XX&>>>>>>>>>>>>>>>>>>>:>>>>>:>>:>:==========+X.<<<<<<<<<<<<<<<<<<<<<<<<<<",
"<<<<<<<<<<<<<<<<<<<<<<<<<<<.X+>>>>>>:>>>>>>>>>>>>>>>>>>>>>>;==========&XX<<<<<<<<<<<<<<<<<<<<<<<<<<<",
"<<<<<<<<<<<<<<<<<<<<<<<<<<<<XX=>>>>>>>>>>>>>>>>>>>>>:>>>>:-===========@X.<<<<<<<<<<<<<<<<<<<<<<<<<<<",
"<<<<<<<<<<<<<<<<<<<<<<<<<<<<.X#>>>>>>>>>>>>>>>>>>>>>>>>:;============*oX<<<<<<<<<<<<<<<<<<<<<<<<<<<<",
"<<<<<<<<<<<<<<<<<<<<<<<<<<<<<Xo:>>>>>>>>>>>>>>>>>>>>>:-==============$XX<<<<<<<<<<<<<<<<<<<<<<<<<<<<",
"<<<<<<<<<<<<<<<<<<<<<<<<<<<<<XX%>>>>>>>;-=**&&%%%%%%$$$$%%%&&*=======OX <<<<<<<<<<<<<<<<<<<<<<<<<<<<",
"<<<<<<<<<<<<<<<<<<<<<<<<<<<<< XO%#@+OoXXXXXXXXXXXXXXXXXXXXXXXXXoO+@##XX<<<<<<<<<<<<<<<<<<<<<<<<<<<<<",
"<<<<<<<<<<<<<<<<<<<<<<<<<<<<..XXXXXXXXXXXXXXXooooOOoooooXXXXXXXXXXXXXXX.<<<<<<<<<<<<<<<<<<<<<<<<<<<<",
"<<<<<<<<<<<<<<<<<<<<<<<<<<.XXXXXo+#$%&*=-;:>,,,,,,,,,,,,,>:;-=&%$#@+XXXXXX.<<<<<<<<<<<<<<<<<<<<<<<<<",
"<<<<<<<<<<<<<<<<<<<<<<<<.XXXO$%:,,,,,,,,,,,,,,,,,,,,,,,,,,,,,,,,,,,,,*$#oXX.<<<<<<<<<<<<<<<<<<<<<<<<",
"<<<<<<<<<<<<<<<<<<<<<<<.XXO*,,,,,,,,,,,,,,,,,,,,,,,,,,,,,,,,,,,,,,,,,,,,:$XX.<<<<<<<<<<<<<<<<<<<<<<<",
"<<<<<<<<<<<<<<<<<<<<<<<XX@>,,,,,,,,,,>,>>>>>>>>>>>>>>>>>>>>>>>>,>,,,,,,,,,-oX.<<<<<<<<<<<<<<<<<<<<<<",
"<<<<<<<<<<<<<<<<<<<<<<.X+>,,>>>>>>>>>>>>>>>>>>>>>>>>>>>>>>>>>>>>>>>>>>>>>,,=XX<<<<<<<<<<<<<<<<<<<<<<",
"<<<<<<<<<<<<<<<<<<<<<<XX=>>>>>>>>>>>>>>>>>>>>>>>>>>>>>>>>>>>>>>>>>>>>>>>>>>>#X.<<<<<<<<<<<<<<<<<<<<<",
"<<<<<<<<<<<<<<<<<<<<<.XO>>>>>>>>>>:>>>>>>>>>>>>>>>>>>>>>>>>>>>>>>>:>>>>>>>>>*XX<<<<<<<<<<<<<<<<<<<<<",
"<<<<<<<<<<<<<<<<<<<<<.X#>>>>>>>>>>>>>:>>:>>:>>:>>:>>:>>:>>:>>>>:>>>>>>>>>>>>>XX<<<<<<<<<<<<<<<<<<<<<",
"<<<<<<<<<<<<<<<<<<<<<.X%>>>>:>>:>>>>>>>>>>>>>>>>>>>>>>>>>>>>>>>>>>>>:>>:>>>>>OX<<<<<<<<<<<<<<<<<<<<<",
"<<<<<<<<<<<<<<<<<<<<<.X&>>>>>>>>>>>>>>>>>>>>>>>>>>>>>>>>>>>>>:>>>>>>>>>>>>>>>@X.<<<<<<<<<<<<<<<<<<<<",
"<<<<<<<<<<<<<<<<<<<<<XX*>>>>>>>>>>:>>>>>>>>>>>>>>>>:>>>>>>>>>>>>>:>>>>>>>>>>>@X <<<<<<<<<<<<<<<<<<<<",
"<<<<<<<<<<<<<<<<<<<<<XX*>>>>>>>>>>>>>>>>:>>>:>>>:>>>>>:>>>:>>>>>>>>>>>>>>>>>>#X <<<<<<<<<<<<<<<<<<<<",
"<<<<<<<<<<<<<<<<<<<<<XX*>>>>:>>>>>>>>:>>>>>>>>>>>>>>>>>>>>>>>>>>>>>>:>>>:>>>>#X <<<<<<<<<<<<<<<<<<<<",
"<<<<<<<<<<<<<<<<<<<<<XX*>>>>>>>>>>>>>>>>>>>>>>>>>>>>>>>>>>>>>>>>>>>>>>>>>>>>>#X <<<<<<<<<<<<<<<<<<<<",
"<<<<<<<<<<<<<<<<<<<<<XX+@@@@@@@@@@@@@@@@@@@@@@@@@@@@@@@@@@@@@@@@@@@@@@@@@@@@@OX <<<<<<<<<<<<<<<<<<<<",
"<<<<<<<<<<<<<<<<<<<<<XXXXXXXXXXXXXXXXXXXXXXXXXXXXXXXXXXXXXXXXXXXXXXXXXXXXXXXXXX <<<<<<<<<<<<<<<<<<<<",
"<<<<<<<<<<<<<<<<<<<<<..........................................................<<<<<<<<<<<<<<<<<<<<<",
"<<<<<<<<<<<<<<<<<<<<<<<<<<<<<<<<<<<<<<<<<<<<<<<<<<<<<<<<<<<<<<<<<<<<<<<<<<<<<<<<<<<<<<<<<<<<<<<<<<<<",
"<<<<<<<<<<<<<<<<<<<<<<<<<<<<<<<<<<<<<<<<<<<<<<<<<<<<<<<<<<<<<<<<<<<<<<<<<<<<<<<<<<<<<<<<<<<<<<<<<<<<",
"<<<<<<<<<<<<<<<<<<<<<<<<<<<<<<<<<<<<<<<<<<<<<<<<<<<<<<<<<<<<<<<<<<<<<<<<<<<<<<<<<<<<<<<<<<<<<<<<<<<<",
"<<<<<<<<<<<<<<<<<<<<<<<<<<<<<<<<<<<<<<<<<<<<<<<<<<<<<<<<<<<<<<<<<<<<<<<<<<<<<<<<<<<<<<<<<<<<<<<<<<<<",
"<<<<<<<<<<<<<<<<<<<<<<<<<<<<<<<<<<<<<<<<<<<<<<<<<<<<<<<<<<<<<<<<<<<<<<<<<<<<<<<<<<<<<<<<<<<<<<<<<<<<",
"<<<<<<<<<<<<<<<<<<<<<<<<<<<<<<<<<<<<<<<<<<<<<<<<<<<<<<<<<<<<<<<<<<<<<<<<<<<<<<<<<<<<<<<<<<<<<<<<<<<<",
"<<<<<<<<<<<<<<<<<<<<<<<<<<<<<<<<<<<<<<<<<<<<<<<<<<<<<<<<<<<<<<<<<<<<<<<<<<<<<<<<<<<<<<<<<<<<<<<<<<<<",
"<<<<<<<<<<<<<<<<<<<<<<<<<<<<<<<<<<<<<<<<<<<<<<<<<<<<<<<<<<<<<<<<<<<<<<<<<<<<<<<<<<<<<<<<<<<<<<<<<<<<",
"<<<<<<<<<<<<<<<<<<<<<<<<<<<<<<<<<<<<<<<<<<<<<<<<<<<<<<<<<<<<<<<<<<<<<<<<<<<<<<<<<<<<<<<<<<<<<<<<<<<<"
};
